<?xml version="1.0" encoding="UTF-8" standalone="no"?>
<!-- Created with Inkscape (http://www.inkscape.org/) -->

<svg
   xmlns:dc="http://purl.org/dc/elements/1.1/"
   xmlns:cc="http://creativecommons.org/ns#"
   xmlns:rdf="http://www.w3.org/1999/02/22-rdf-syntax-ns#"
   xmlns:svg="http://www.w3.org/2000/svg"
   xmlns="http://www.w3.org/2000/svg"
   xmlns:sodipodi="http://sodipodi.sourceforge.net/DTD/sodipodi-0.dtd"
   xmlns:inkscape="http://www.inkscape.org/namespaces/inkscape"
   width="964.39001"
   height="520"
   id="svg6683"
   version="1.1"
   inkscape:version="0.48.1 "
   sodipodi:docname="Neues Dokument 3">
  <defs
     id="defs6685" />
  <sodipodi:namedview
     id="base"
     pagecolor="#ffffff"
     bordercolor="#666666"
     borderopacity="1.0"
     inkscape:pageopacity="0.0"
     inkscape:pageshadow="2"
     inkscape:zoom="1.546"
     inkscape:cx="482.19502"
     inkscape:cy="182.38034"
     inkscape:document-units="px"
     inkscape:current-layer="layer1"
     showgrid="false"
     fit-margin-top="0"
     fit-margin-left="0"
     fit-margin-right="0"
     fit-margin-bottom="0"
     inkscape:window-width="1680"
     inkscape:window-height="990"
     inkscape:window-x="-4"
     inkscape:window-y="-4"
     inkscape:window-maximized="1" />
  <metadata
     id="metadata6688">
    <rdf:RDF>
      <cc:Work
         rdf:about="">
        <dc:format>image/svg+xml</dc:format>
        <dc:type
           rdf:resource="http://purl.org/dc/dcmitype/StillImage" />
        <dc:title></dc:title>
      </cc:Work>
    </rdf:RDF>
  </metadata>
  <g
     inkscape:label="Ebene 1"
     inkscape:groupmode="layer"
     id="layer1"
     transform="translate(-1814.4818,26.641604)">
    <g
       id="g3276"
       transform="matrix(63.702707,0,0,-63.702707,2347.7332,-0.77963163)"
       style="fill:#1a1a1a">
      <path
         inkscape:connector-curvature="0"
         d="M 0,0 C -0.189,0.046 -0.396,0.01 -0.391,0.003 -0.411,0.01 -0.45,0.024 -0.471,0.02 -0.474,0.018 -0.477,0.017 -0.479,0.017 c 0.005,-0.002 0.01,-0.004 0.014,-0.006 -0.014,-0.005 -0.019,0.001 -0.03,0.004 0.007,-0.01 0.006,-0.008 0,-0.018 0,-0.001 0.001,-0.003 0.002,-0.004 0.03,-0.007 0.06,-0.02 0.102,-0.015 l 0,0.002 c -0.009,0.01 -0.03,0.012 -0.04,0.02 -0.002,0 -0.003,0 -0.004,0 0,0.001 0,0.001 0,0.002 0.027,-0.005 0.05,-0.018 0.07,-0.03 0.003,0.002 0.006,0.004 0.008,0.006 -0.006,-0.012 -0.015,-0.015 -0.01,-0.027 -0.047,0.008 -0.08,0.024 -0.097,-0.026 0.004,-0.005 0.009,-0.009 0.014,-0.013 -0.003,-0.002 -0.007,-0.003 -0.01,-0.004 -0.001,-0.004 -0.002,-0.008 -0.003,-0.012 0.018,-0.017 0.029,-0.026 0.051,-0.034 0.001,-0.01 0.002,-0.019 0.004,-0.028 0.006,-0.004 0.006,-0.003 0.013,-0.002 0.01,-0.009 0.003,-0.017 0.008,-0.023 0.012,-0.015 0.06,-0.039 0.07,-0.054 0.004,-0.005 0.001,-0.013 0.009,-0.019 0.017,-0.011 0.037,-0.018 0.051,-0.03 0.006,-0.003 0.002,-0.001 0,-0.007 0.034,-0.016 0.086,-0.014 0.115,-0.031 0.005,-0.005 0.002,-0.002 0.002,-0.011 0.028,-0.008 0.058,-0.015 0.087,-0.023 0.002,0 0.004,0.001 0.007,0.002 0.001,0.007 0.001,0.007 -0.002,0.014 0.018,0.011 0.022,0.029 0.034,0.043 -0.006,0.011 -0.008,0.012 -0.006,0.027 0.024,0.003 0.032,0.017 0.052,0.022 -0.003,0.011 -0.001,0.013 -0.011,0.019 0.006,0.004 0.005,0.002 0.013,0 0.002,0.002 0.004,0.004 0.007,0.006 -0.007,0.005 -0.013,0.011 -0.02,0.017 -0.001,0 -0.003,0 -0.004,0 l 0,0.002 c 0.012,-0.003 0.023,-0.005 0.036,-0.003 0.003,0 0.004,0.001 0.005,0.001 -0.002,0.004 -0.006,0.008 -0.009,0.012 0.001,10e-4 0.002,10e-4 0.002,0.002 0.017,-0.01 0.027,-0.011 0.052,-0.011 0.001,0.006 0.003,0.012 0.004,0.017 0.004,0.001 0.007,0.001 0.011,0.002 C 0.114,-0.2 0.111,-0.205 0.107,-0.21 0.108,-0.212 0.109,-0.214 0.109,-0.215 0.16,-0.226 0.194,-0.206 0.242,-0.199 l 0,0.013 C 0.3,-0.169 0.381,-0.205 0.437,-0.2 0.455,-0.199 0.232,-0.057 0,0"
         style="fill:#1a1a1a;fill-opacity:1;fill-rule:nonzero;stroke:none"
         id="path3278" />
    </g>
    <g
       id="g3280"
       transform="matrix(63.702707,0,0,-63.702707,2279.5102,5.8454503)"
       style="fill:#1a1a1a">
      <path
         inkscape:connector-curvature="0"
         d="M 0,0 C 0.027,-0.004 0.063,-0.007 0.092,-0.021 0.122,-0.034 0.129,-0.054 0.162,-0.059 0.154,-0.064 0.151,-0.061 0.141,-0.058 0.148,-0.071 0.156,-0.078 0.175,-0.081 0.171,-0.082 0.168,-0.083 0.166,-0.085 0.175,-0.093 0.18,-0.098 0.191,-0.104 c 0.003,0 0.006,0 0.009,0 -0.003,0.009 -0.001,0.007 -0.009,0.01 l 0,0.002 c 0.063,-0.019 0.12,-0.064 0.191,-0.075 0.003,0.01 -0.001,0.005 0.008,0.006 0,0.001 0,0.002 0,0.002 -0.021,0.028 -0.07,0.058 -0.104,0.072 0,0.004 -0.001,0.005 -0.002,0.009 0.013,-0.008 0.028,-0.015 0.041,-0.022 0,0.003 0,0.006 0,0.008 0.038,-0.023 0.083,-0.049 0.122,-0.072 0.003,0.001 0.007,0.001 0.01,0.002 0.001,0 0.003,0 0.004,0 l 0,0.002 c -0.013,0.008 -0.02,0.007 -0.03,0.021 0.007,-0.002 0.012,-0.004 0.018,-0.006 0.001,0 0.001,0 0.002,0 0.001,0.007 -0.001,0.009 -0.006,0.016 0.001,0.001 0.001,0.003 0.002,0.004 0.005,-0.003 0.004,-0.002 0.006,-0.008 0.013,0.001 0.009,0.002 0.016,0.01 0.003,-0.008 0.004,-0.008 0.01,-0.013 0.001,0 0.002,0 0.002,0 -0.001,0.003 -0.002,0.006 -0.004,0.008 0.005,0 0.01,0 0.015,0 0,0.001 0,0.003 0,0.004 -0.012,0.009 -0.023,0.017 -0.04,0.022 -0.001,10e-4 -0.002,0.003 -0.002,0.004 0.004,0.001 0.008,0.001 0.012,0.002 0,0 0,0.001 0,0.002 -0.011,0.009 -0.049,0.04 -0.076,0.036 0,0.013 -0.006,0.029 -0.022,0.033 0.006,0 0.013,0 0.018,0 0.001,0.001 0.002,0.003 0.002,0.004 -0.002,0.004 -0.005,0.005 -0.008,0.009 0.028,-0.002 0.052,-0.025 0.077,-0.026 -0.009,-0.028 0.046,-0.036 0.065,-0.051 0.014,0.002 0.014,0.007 0.025,0.007 -0.003,0.001 -0.005,0.004 -0.007,0.005 0.003,0.007 0.002,0.004 0.007,0.008 0.01,-0.004 0.021,-0.008 0.032,-0.003 0,-0.002 0,-0.005 0,-0.009 0.005,0 0.009,0 0.014,0 -0.002,0.004 -0.004,0.007 -0.006,0.009 0.007,0.004 0.001,0.002 0.009,0 0.002,0.001 0.004,0.001 0.006,0.002 -0.003,0.004 -0.006,0.008 -0.008,0.012 0.019,-0.005 0.027,-0.004 0.043,-10e-4 -0.006,0.019 -0.029,0.026 -0.051,0.024 -0.003,0.006 0.001,0.003 0.006,0.006 -0.007,0 -0.014,0 -0.021,0.001 -0.008,0.003 -0.014,0.016 -0.037,0.017 0.005,0.004 0.001,0.002 0.009,0.004 C 0.532,0 0.512,0.01 0.498,0.01 0.497,0.011 0.495,0.012 0.494,0.014 0.497,0.016 0.5,0.017 0.503,0.019 0.48,0.023 0.475,0.029 0.46,0.021 0.447,0.032 0.448,0.037 0.426,0.04 0.427,0.042 0.429,0.044 0.43,0.046 0.413,0.051 0.396,0.055 0.379,0.059 c 0,0.001 0,0.002 0,0.002 C 0.384,0.062 0.388,0.062 0.392,0.063 0.393,0.071 0.393,0.068 0.39,0.075 0.406,0.071 0.421,0.067 0.438,0.062 0.439,0.064 0.44,0.065 0.442,0.066 0.432,0.076 0.418,0.082 0.404,0.082 c 0,0.001 0.001,0.004 0.002,0.006 0.007,-0.002 0.015,-0.006 0.023,-0.008 0,0.002 0.001,0.002 0.002,0.002 0,0.003 0,0.005 0,0.007 C 0.412,0.103 0.408,0.104 0.378,0.102 0.385,0.111 0.387,0.108 0.399,0.109 l 0,0.002 C 0.378,0.128 0.346,0.12 0.323,0.133 c 0,0 -0.02,0.023 -0.024,0.025 C 0.284,0.167 0.229,0.177 0.219,0.178 0.22,0.181 0.222,0.183 0.223,0.185 0.202,0.194 0.182,0.2 0.16,0.211 l -0.005,0 0.005,0 C 0.165,0.21 0.171,0.21 0.177,0.21 c 0,0.001 0,0.003 0,0.003 C 0.166,0.229 0.069,0.189 0.052,0.164 0.045,0.168 0.091,0.129 0.079,0.131 0.077,0.129 0.076,0.127 0.073,0.125 l -0.004,0 C 0.076,0.115 0.121,0.117 0.131,0.117 0.132,0.115 0.133,0.113 0.133,0.112 c -0.007,-0.004 -0.01,0.003 -0.02,0 -0.002,0 -0.003,0 -0.005,0 C 0.114,0.097 0.128,0.101 0.143,0.106 0.145,0.101 0.146,0.095 0.148,0.09 0.138,0.093 0.133,0.094 0.121,0.094 0.125,0.079 0.151,0.076 0.169,0.075 0.17,0.078 0.17,0.08 0.171,0.083 0.164,0.086 0.157,0.087 0.15,0.088 0.151,0.092 0.152,0.096 0.153,0.1 0.165,0.096 0.171,0.089 0.189,0.086 0.192,0.075 0.195,0.064 0.199,0.053 0.165,0.049 0.131,0.045 0.098,0.042 0.097,0.04 0.096,0.039 0.095,0.038 0.102,0.031 0.11,0.024 0.117,0.018 l 0,-0.002 C 0.093,0.022 0.067,0.017 0.046,0.02 -0.001,0.028 -0.037,0.053 -0.083,0.025 -0.082,0.023 -0.081,0.021 -0.081,0.019 -0.068,-0.005 -0.027,0.004 0,0 m -1.473,-4.628 c 0.026,-0.042 0.049,-0.101 0.082,-0.135 0.07,-0.071 0.183,-0.109 0.227,-0.201 0.021,-0.021 0.042,-0.041 0.063,-0.062 -0.001,-0.009 -0.002,-0.02 -0.003,-0.029 0.003,-0.029 0.016,-0.069 0.011,-0.099 -0.002,-0.014 -0.007,-0.032 -0.005,-0.046 0.002,-0.011 0.004,-0.02 0.006,-0.029 -0.005,-0.029 -0.018,-0.059 -0.018,-0.096 -0.009,-0.003 -0.004,-10e-4 -0.015,0 0,-0.01 -10e-4,-0.021 -10e-4,-0.031 l 0.01,0 c -0.003,-0.019 -0.005,-0.038 -0.008,-0.057 0.003,-0.019 0.005,-0.038 0.007,-0.058 -0.002,-0.007 -0.014,-0.01 -0.016,-0.021 0.001,-0.007 0.003,-0.016 0.004,-0.023 -0.003,-0.038 -0.011,-0.072 -0.022,-0.095 -0.012,-0.023 0,-0.047 -0.02,-0.061 0.003,-0.031 0.013,-0.046 0.011,-0.079 -0.008,-0.002 -0.005,-0.002 -0.014,-0.002 -0.006,-0.072 0.03,-0.111 0.008,-0.165 0.003,-0.001 0.011,-0.023 0.008,-0.03 -0.018,-0.048 -0.039,-0.094 -0.043,-0.15 -0.002,0.003 -0.004,0.004 -0.007,0.006 0,-0.011 0,-0.02 0,-0.029 -0.006,0.002 -0.012,0.004 -0.018,0.006 -0.001,0 -0.002,-0.001 -0.002,-0.002 0.004,-0.039 0.023,-0.082 0.039,-0.116 -0.002,-0.045 -0.029,-0.058 0.005,-0.11 0,-0.003 0,-0.006 0,-0.009 -0.003,0.002 -0.007,0.004 -0.01,0.007 -0.007,-0.021 0.004,-0.043 -0.001,-0.068 0.007,-0.009 0.015,-0.01 0.027,-0.015 0.003,0 0.005,10e-4 0.007,0.002 0.004,0.023 0.002,0.05 -0.009,0.067 10e-4,0.002 0.003,0.004 0.004,0.005 0.005,-0.002 0.01,-0.005 0.014,-0.007 l 0.003,0 c -0.002,0.01 0.004,0.008 -0.005,0.009 0.002,0.003 0.003,0.006 0.004,0.009 0.004,-0.004 0.007,-0.009 0.012,-0.013 -0.002,-0.004 -0.005,-0.006 -0.007,-0.009 0.011,-0.008 0.016,-0.032 0.002,-0.037 0.005,-0.003 0.008,-0.006 0.012,-0.009 -0.006,-0.036 0.001,-0.062 0,-0.101 l -0.004,0 c -0.003,0.011 -0.012,0.044 -0.007,0.047 -0.008,0.012 -0.016,0.019 -0.029,0.024 -0.008,-0.01 -0.012,-0.024 -0.014,-0.039 0.006,-0.006 0.012,-0.012 0.018,-0.018 -10e-4,-0.01 -10e-4,-0.019 -0.002,-0.03 l -0.015,0 0,-0.002 c 0.002,-0.004 0.004,-0.009 0.006,-0.013 -0.005,-0.004 -0.011,-0.008 -0.016,-0.013 0,-0.003 0,-0.006 0,-0.009 0.005,-0.003 0.009,-0.005 0.014,-0.008 0.003,0.003 0.007,0.005 0.009,0.008 0.01,-0.008 0.029,-0.011 0.039,-0.022 -0.003,0.001 -0.006,0.003 -0.008,0.003 0.003,-0.007 0.002,-0.005 0.006,-0.009 -0.002,-0.007 -0.004,-0.014 -0.006,-0.021 -0.008,0.005 -0.01,0.007 -0.022,0.008 l 0,-0.002 c 0.002,-0.002 0.004,-0.004 0.006,-0.006 -0.003,-0.002 -0.007,-0.004 -0.01,-0.006 0.011,-0.022 0.014,-0.054 0.028,-0.072 0.01,-0.005 0.02,-0.01 0.03,-0.015 -0.006,0.002 -0.012,0.003 -0.017,0.004 l 0,-0.002 c 0.002,-0.008 0.004,-0.017 0.006,-0.026 0.004,-10e-4 0.007,-0.003 0.012,-0.004 0.002,0.006 0.005,0.013 0.008,0.02 0.002,-0.006 0.004,-0.011 0.006,-0.016 l -0.008,0 c -0.001,-10e-4 -0.002,-10e-4 -0.002,-0.002 0.008,-0.012 0.01,-0.018 0.01,-0.036 0.009,0.002 0.018,0.005 0.026,0.008 0.005,-0.005 0.004,-0.006 0.013,-0.008 -0.002,-0.003 -0.003,-0.006 -0.004,-0.009 -0.007,0.002 -0.014,0.004 -0.022,0.006 -10e-4,-0.001 -10e-4,-0.002 -0.002,-0.004 0.008,-0.014 0.019,-0.022 0.032,-0.03 -10e-4,0.003 -0.003,0.006 -0.004,0.008 0.013,-0.009 0.024,-0.019 0.036,-0.03 l 0,-0.002 c -0.011,0.005 -0.022,0.01 -0.034,0.016 0.015,-0.019 0.026,-0.025 0.044,-0.028 -0.002,-0.007 0,-10e-4 -0.003,-0.008 0.017,-0.015 0.086,-0.061 0.105,-0.057 0,-0.008 0.001,-0.002 -0.002,-0.008 0.02,-0.02 0.086,-0.044 0.117,-0.052 l 0,0.002 c -0.005,0.005 -0.009,0.01 -0.014,0.016 0.022,-0.009 0.037,-0.002 0.052,-0.016 l 0,0.009 c 0.011,-0.002 0.021,-0.003 0.03,-0.004 l 0.002,0 c 0.001,10e-4 0.002,0.002 0.003,0.004 0,0.002 -0.001,0.004 -0.001,0.007 -0.057,0.007 -0.077,0.057 -0.123,0.07 0.002,0.003 0.004,0.006 0.006,0.009 -0.014,0.014 -0.031,0.013 -0.043,0.028 -0.002,0 -0.003,0.001 -0.004,0.002 0.002,0.001 0.004,0.003 0.007,0.004 0.01,-0.004 0.021,-0.008 0.031,-0.014 0,0.001 0,0.003 0,0.004 -0.017,0.021 -0.044,0.036 -0.047,0.072 0.001,0.002 0.001,0.003 0.002,0.005 0.01,0.002 0.02,0.004 0.03,0.006 0.008,0.006 0.005,0.019 0.004,0.034 0.014,0.01 0.042,0.016 0.053,0.028 0.004,0.005 0.004,0.019 0.002,0.033 -0.035,0.023 -0.087,0.03 -0.075,0.081 0.016,0.013 0.038,0.018 0.059,0.01 l 0.009,0 c -0.002,0.008 0.001,0.004 -0.007,0.008 0.005,0.009 0.007,0.008 0.016,0.011 0.001,0.013 -0.003,0.025 -0.007,0.037 0.009,0.013 0.016,0.019 0.038,0.019 -0.005,0.01 -0.018,0.013 -0.026,0.02 -0.001,10e-4 -0.002,0.002 -0.004,0.002 0.005,0.002 0.01,0.004 0.015,0.006 0.011,-0.007 0.015,-0.011 0.021,-0.023 0.006,-10e-4 0.012,-0.002 0.018,-0.003 0.002,0.003 0.004,0.005 0.006,0.007 0,0.014 -0.001,0.019 -0.006,0.026 -0.002,0.002 -0.003,0.004 -0.005,0.006 -0.008,0 -0.016,-0.001 -0.023,-0.002 0.003,-0.003 0.007,-0.006 0.01,-0.008 l 0,-0.003 c -0.004,0.002 -0.009,0.003 -0.014,0.005 -0.008,0.005 -0.008,0.01 -0.022,0.015 -0.007,0.013 -0.007,0.038 -0.013,0.054 0.016,0.02 0.053,-0.02 0.075,-0.026 0.016,10e-4 0.034,10e-4 0.051,0.003 0.004,0.008 0.007,0.015 0.011,0.023 -0.003,-0.001 -0.006,-0.003 -0.01,-0.004 -0.002,0.003 -0.005,0.006 -0.008,0.008 0.011,0.016 0.025,0.032 0.017,0.053 0.003,-0.002 0.006,-0.003 0.009,-0.004 l 0.002,0 c -0.002,0.004 -0.003,0.008 -0.005,0.012 0.031,-0.012 0.168,-0.032 0.205,-0.01 0.009,0.004 0.041,0.044 0.054,0.054 0,0.01 0,0.02 0,0.03 -0.019,0.007 -0.027,0.008 -0.029,0.03 0.006,0.005 0.011,0.011 0.017,0.016 -0.009,0.038 -0.047,0.042 -0.065,0.072 0.003,0.003 0.006,0.007 0.009,0.011 0.002,0 0.004,0.001 0.006,0.002 0.006,-0.009 0.012,-0.012 0.015,-0.024 0.014,-0.003 0.027,-0.006 0.042,-0.009 0.012,-0.009 0.026,-0.034 0.042,-0.037 0.013,-0.003 0.023,0.007 0.037,0 0.01,-0.005 0.017,-0.017 0.034,-0.015 0.043,0.005 0.051,0.025 0.076,0.043 0.016,0.006 0.03,0.013 0.046,0.02 0.011,0.014 0.022,0.029 0.034,0.043 0.028,0.012 0.056,0.025 0.084,0.037 0.034,0.022 0.052,0.063 0.084,0.087 0.039,0.03 0.089,0.036 0.104,0.092 -0.003,0 -0.006,0.001 -0.008,0.002 0.005,0.02 0.007,0.048 0.018,0.078 0.01,0.024 0.16,0.1 0.199,0.088 0.009,-0.006 0.017,-0.013 0.026,-0.02 0.001,0.005 0.002,0.01 0.004,0.016 -0.003,10e-4 -0.006,10e-4 -0.009,0.002 l 0,0.002 c 0.02,0.005 0.039,0.034 0.058,0.028 0.007,0.006 0.007,0.004 0,0.011 l 0,0.006 c 0.04,0 0.117,-0.016 0.155,-0.034 0.004,0.005 0.004,0.005 0.011,0.008 -0.002,0.034 0.038,0.021 0.064,0.032 0.016,0.014 0.017,0.054 0.042,0.065 0.04,0.021 0.038,0.033 0.066,0.052 0.012,0.008 0.025,0.007 0.033,0.019 0.028,0.047 0.009,0.068 0.068,0.089 0.009,0.032 0.018,0.057 0.036,0.081 0.01,0.01 0.019,0.02 0.028,0.032 0.01,0.028 0.004,0.052 0.015,0.078 0.012,0.028 0.036,0.045 0.039,0.081 0.026,0.015 0.049,0.01 0.074,0.027 0.037,0.032 0.073,0.064 0.11,0.096 0.013,0.003 0.025,0.006 0.039,0.008 0.016,0.014 0.033,0.026 0.049,0.039 0.059,0.038 0.107,0.072 0.131,0.147 0,0.014 10e-4,0.029 0.002,0.043 0.006,0.027 0.038,0.205 0.037,0.205 -1.657,0.003 -2.886,-0.017 -2.886,-0.017 m 0.065,3.118 c 0.016,-0.012 0.061,0.013 0.084,0.013 0.009,-0.012 0.03,-0.063 0.042,-0.066 0.018,-0.041 -0.032,-0.061 -0.027,-0.092 10e-4,0 0.003,-10e-4 0.005,-0.003 0.008,0.009 0.007,0.008 0.004,0.018 0.002,10e-4 0.003,10e-4 0.005,0.002 0.004,-0.011 -0.001,-0.009 0.01,-0.01 -0.008,-0.006 -0.015,-0.011 -0.024,-0.018 -0.004,-0.008 0.002,-0.03 0.005,-0.049 0.003,-10e-4 0.007,-0.002 0.01,-0.003 0.002,0.002 0.003,0.005 0.004,0.008 0.001,-0.001 0.002,-0.003 0.002,-0.004 -0.008,-0.011 -0.008,-0.016 -0.014,-0.026 0.005,-0.001 0.003,0 0.008,0.002 0.005,-0.007 0.007,-0.012 0.004,-0.024 0.001,-0.033 0.035,-0.033 0.02,-0.068 0.011,-0.016 0.049,-0.005 0.059,-0.007 -10e-4,0.027 0.033,0.055 0.045,0.08 0.015,0.034 10e-4,0.08 10e-4,0.12 0.004,0.002 0.008,0.003 0.013,0.005 -0.005,0.03 -0.01,0.061 -0.014,0.091 0.01,0.117 0.103,0.145 0.196,0.173 0.044,0.014 0.028,0.051 0.108,0.035 0.021,0.039 0.089,0.031 0.128,0.041 0.001,0.001 0.001,0.003 0.002,0.004 -0.008,0.005 -0.006,0.002 -0.01,0.012 l 0,0.002 c 0.01,0.007 0.043,0.014 0.055,0.014 0.004,0.005 0.008,0.01 0.012,0.016 -0.008,0.01 -0.023,0.016 -0.04,0.017 0,0.001 0,0.002 0,0.002 0.015,-0.002 0.028,-0.004 0.042,-0.007 0,-0.005 0,-0.011 0,-0.016 0.001,10e-4 0.006,0.044 0.007,0.067 -0.004,0.002 -0.008,0.003 -0.013,0.004 -0.007,0.005 -0.001,0.001 -0.002,0.011 0,0.009 0.015,0.03 0.022,0.04 -0.006,0.005 0,0.04 0.001,0.05 0.01,0.01 0.02,0.019 0.03,0.027 -0.025,-0.034 -0.012,-0.035 -0.02,-0.075 0.007,-0.002 0.013,-0.004 0.019,-0.006 -0.012,-0.012 -0.025,-0.016 -0.033,-0.032 0,-0.001 -0.001,-0.002 -0.002,-0.004 0.004,-0.004 0.003,-0.003 0.011,-0.005 0.012,0.027 0.063,0.044 0.085,0.08 -0.014,0.014 -0.007,0.023 -0.012,0.042 0.01,-0.009 0.014,-0.016 0.029,-0.021 -0.002,-0.004 -0.005,-0.007 -0.008,-0.011 l 0,-0.002 c 0.033,-0.004 0.079,0.039 0.094,0.063 -0.003,0.007 0,0.004 -0.007,0.008 0,0.001 -0.001,0.003 -0.002,0.004 0.039,0.006 0.095,-0.006 0.137,-0.002 -0.004,0.005 -0.007,0.01 -0.011,0.014 -0.032,-0.004 -0.061,0.008 -0.093,0.001 0.038,0.03 0.155,-0.013 0.206,0.007 0.005,-0.013 0.018,-0.012 0.043,-0.013 0.002,0.004 0.006,0.008 0.009,0.012 -0.002,0.004 -0.004,0.007 -0.007,0.01 -0.005,-0.011 -0.001,-0.012 -0.013,-0.012 -0.005,0.001 -0.011,0.002 -0.017,0.003 -0.004,0.012 0.002,0.031 -0.021,0.034 0,0.001 0,0.002 0,0.004 0.01,0.002 0.021,0.005 0.03,0.007 -0.002,0.004 -0.005,0.01 -0.008,0.014 0.014,0.017 0.045,0.028 0.058,0.04 0.034,-0.006 0.056,-0.005 0.09,0.012 0.005,-0.006 0.004,-0.004 0.004,-0.012 0.042,0.003 0.082,0 0.126,0.011 -0.002,0.005 -0.004,0.01 -0.006,0.014 0.005,0 0.027,-0.009 0.034,-0.01 0.033,-0.007 0.096,0 0.124,0.009 C 0.213,-0.866 0.214,-0.867 0.215,-0.87 0.204,-0.871 0.195,-0.875 0.185,-0.877 0.184,-0.878 0.183,-0.88 0.183,-0.881 0.194,-0.883 0.206,-0.886 0.217,-0.888 0.176,-0.894 0.134,-0.901 0.093,-0.908 0.092,-0.909 0.092,-0.911 0.091,-0.912 0.096,-0.911 0.101,-0.91 0.106,-0.908 0.103,-0.91 0.1,-0.911 0.097,-0.912 0.087,-0.924 0.084,-0.925 0.084,-0.947 0.088,-0.948 0.093,-0.948 0.097,-0.948 0.105,-0.959 0.1,-0.966 0.117,-0.967 c 0.03,-0.002 0.058,0.018 0.091,0.02 0.004,0.008 0.001,0.011 0.011,0.015 0.001,-0.002 0.003,-0.004 0.004,-0.007 0.003,0.003 0.006,0.006 0.009,0.008 0.002,-0.014 0.01,-0.014 0.021,-0.018 0.018,0.02 0.134,-0.005 0.168,0.005 0.001,0 0.002,0 0.004,0 -0.006,0.007 -0.012,0.009 -0.026,0.01 0.006,0.003 0.007,0.002 0.011,0.008 0.026,-0.009 0.055,-0.003 0.092,-0.004 l 0,0.006 C 0.503,-0.911 0.483,-0.9 0.469,-0.899 l 0,0.002 c 0.006,0.007 0.012,0.013 0.017,0.02 C 0.481,-0.87 0.482,-0.874 0.482,-0.864 0.478,-0.863 0.474,-0.862 0.469,-0.861 0.448,-0.871 0.398,-0.884 0.397,-0.914 0.382,-0.916 0.375,-0.915 0.374,-0.898 c -0.05,-0.005 -0.07,0.02 -0.111,0.025 -0.003,0.003 -0.006,0.008 -0.009,0.011 0.003,0 0.006,0 0.009,0 0,0.001 0.001,0.003 0.002,0.004 -0.013,0.005 -0.025,0.01 -0.039,0.015 -0.007,0.005 -0.013,0.025 -0.018,0.034 0.003,0.004 0.007,0.007 0.01,0.009 -0.006,0.005 -0.012,0.007 -0.024,0.007 l 0,0.004 c 0.023,0.003 0.033,0.015 0.055,0.024 0.001,0.002 0.003,0.005 0.004,0.008 0,0.001 0,0.001 0,0.002 -0.022,-0.006 -0.041,-0.003 -0.073,-0.002 -0.004,0.015 -0.016,0.021 -0.033,0.024 0,0.002 -0.001,0.003 -0.002,0.004 0.03,-0.002 0.04,-0.016 0.065,-0.019 0.022,0.003 0.045,0.006 0.067,0.009 0.001,0.002 0.001,0.004 0.001,0.006 0.006,0.005 0,0.005 -0.002,0.013 0.002,-0.001 0.005,-0.002 0.008,-0.003 l 0,0.002 c -0.053,0.071 -0.238,0.047 -0.318,0.032 -0.033,-0.006 -0.054,-0.036 -0.098,-0.036 0.019,0.019 0.132,0.061 0.167,0.072 0,0 0.071,-0.005 0.077,-0.004 0.006,0.006 0.012,0.013 0.019,0.021 0.029,0.015 0.072,0.009 0.111,-0.001 0.049,-0.015 0.097,-0.019 0.146,-0.036 0.031,-0.011 0.124,-0.049 0.156,-0.044 0.025,0.004 0.047,0.011 0.07,0.021 0.051,0.022 0.156,-0.033 0.192,0.006 0.003,0.008 0.002,0.001 -0.002,0.011 0.002,-0.001 0.003,-0.002 0.004,-0.002 0.006,0.011 0,0.045 0.007,0.057 -0.012,0.004 -0.025,0.009 -0.036,0.013 0,0.007 0,0.001 0.002,0.009 -0.023,0.002 -0.024,0.007 -0.039,0.006 -0.004,0.026 -0.027,0.034 -0.054,0.038 0,0 0,0.001 0,0.002 0.019,-0.002 0.037,-0.004 0.056,-0.007 -0.009,0.014 -0.033,0.016 -0.036,0.031 -0.018,0.005 -0.033,0.001 -0.048,0.01 -0.008,0.005 -0.006,0.006 -0.006,0.014 -0.009,0.006 -0.033,0.004 -0.041,0.011 -0.009,0.008 -0.011,0.016 -0.026,0.022 -0.003,0.009 -0.005,0.004 0.002,0.01 -0.001,0.005 -0.039,0.032 -0.056,0.036 0.007,0.005 0.005,0.003 0.012,0.003 0.001,0.005 0.001,0.018 0.002,0.033 -0.005,0.003 -0.01,0.005 -0.015,0.007 -0.002,0.001 0.005,0.012 0.005,0.025 -0.02,0.008 -0.042,0.016 -0.039,0.038 -0.004,0 -0.007,0.001 -0.011,0.001 -0.012,0.02 -0.062,0.083 -0.061,0.103 C 0.374,-0.233 0.306,-0.318 0.233,-0.26 0.222,-0.261 0.214,-0.242 0.191,-0.239 0.19,-0.233 0.19,-0.227 0.189,-0.221 0.184,-0.22 0.18,-0.219 0.175,-0.218 c 0.006,0.017 0.012,0.02 0.011,0.043 0.008,0.003 0.015,0.006 0.024,0.01 -0.002,0.003 -0.004,0.006 -0.007,0.01 C 0.197,-0.158 0.19,-0.16 0.184,-0.163 0.17,-0.147 0.138,-0.14 0.114,-0.133 0.113,-0.132 0.112,-0.13 0.112,-0.129 l 0,0.002 c 0.004,0.003 0.003,0.002 0.01,0.004 0,0 0,0.001 0,0.002 -0.017,0.015 -0.051,0.04 -0.072,0.048 -0.018,-0.001 -0.035,-0.001 -0.054,-0.002 -0.044,0.015 -0.087,0.033 -0.132,0.032 -0.004,-0.004 -0.009,-0.009 -0.013,-0.013 -0.001,-0.003 -0.001,-0.005 -0.002,-0.008 0.004,-0.005 0.003,-0.005 0.01,-0.008 -0.009,-0.011 -0.021,-0.017 -0.039,-0.02 0.017,-0.02 0.005,-0.023 0.014,-0.035 C -0.173,-0.134 -0.225,-0.154 -0.244,-0.155 -0.246,-0.159 -0.248,-0.163 -0.25,-0.167 -0.224,-0.175 -0.2,-0.196 -0.199,-0.23 -0.221,-0.279 -0.273,-0.288 -0.336,-0.298 -0.358,-0.299 -0.38,-0.299 -0.402,-0.3 l -0.005,0 c 0.002,-0.009 0,-0.022 0.012,-0.027 -0.011,-0.022 -0.035,-0.048 -0.018,-0.073 -0.012,-0.008 -0.027,-0.02 -0.042,-0.02 0,-0.006 0,-0.012 -0.001,-0.018 -0.002,-0.001 -0.005,-0.001 -0.008,-0.002 -0.001,0.007 -0.005,0.007 -0.008,0.016 -0.018,-0.002 -0.027,-0.009 -0.039,-0.016 -0.008,0.003 -0.015,0.007 -0.022,0.01 -0.006,0.034 -0.028,0.054 -0.042,0.085 0.01,0.01 0.02,0.018 0.028,0.03 0,0.007 -0.001,0.012 -0.001,0.017 0.012,0.013 0.025,0.019 0.035,0.035 -0.045,0.003 -0.173,0.042 -0.198,0.067 -0.01,0.008 -0.012,0.028 -0.025,0.038 -0.02,0.01 -0.039,0.018 -0.059,0.027 -0.022,0 -0.044,0 -0.066,-0.001 l -0.004,0 c 0.015,0.017 0.025,0.04 0.038,0.059 -0.011,0.005 -0.027,0.006 -0.045,0.005 0,0.003 0,0.007 0.001,0.01 0.041,0.049 0.176,0.098 0.234,0.095 -0.003,0.003 -0.006,0.006 -0.008,0.009 0.02,-0.001 0.043,-0.004 0.066,-0.001 0.008,0.011 0.006,0.011 -0.001,0.02 l -0.006,0 0,0.002 c 0.034,-0.01 0.147,-0.008 0.198,0.018 0.008,0.005 0.002,0.002 0,0.008 0.023,0.004 0.045,0.009 0.067,0.014 l 0.005,0 0,0.001 c -0.005,0.004 -0.007,0.005 -0.015,0.007 -0.001,0.002 -0.001,0.003 -0.002,0.004 0.015,-0.001 0.03,-0.002 0.044,-0.004 0,-0.011 0.032,-0.032 0.047,-0.036 0.004,0.004 0.001,0 0.002,0.006 0.001,10e-4 0.002,0.002 0.002,0.002 -0.005,0 -0.002,0.001 -0.008,-0.002 -0.003,0.008 -0.005,0.009 -0.015,0.016 0,10e-4 0,10e-4 0,0.002 0.008,-0.003 0.015,-0.007 0.021,-0.01 0,0.006 -0.001,0.012 -0.001,0.018 0.008,-0.006 0.016,-0.012 0.025,-0.018 0,0.002 0,0.004 0.001,0.006 0.036,0.009 0.07,0.008 0.098,0.017 -0.006,0.005 -0.011,0.011 -0.017,0.017 0.002,0.001 -0.2,0.113 -0.434,0.108 -0.152,-0.002 -0.696,-0.188 -1.126,-0.406 -0.329,-0.166 -0.582,-0.373 -0.597,-0.389 -0.132,-0.114 -0.257,-0.254 -0.324,-0.425 -0.008,-0.008 -0.015,-0.016 -0.023,-0.026 -0.005,-0.011 -0.043,-0.109 -0.043,-0.114 0.006,0 0.012,-0.001 0.018,-0.001 -0.004,-0.029 0.014,-0.03 0.005,-0.065 -0.011,-0.052 -0.047,-0.115 -0.064,-0.171 -0.003,-0.012 -0.014,-0.04 -0.011,-0.055 0.003,-0.02 0.01,-0.045 0.003,-0.07 -0.008,-0.014 -0.016,-0.028 -0.024,-0.042 -0.01,0 -0.013,-0.003 -0.024,10e-4 -10e-4,-10e-4 -10e-4,-10e-4 -0.002,-10e-4 -0.004,-0.029 0.008,-0.046 0.006,-0.071 0.006,0 0.004,0 0.01,0.004 0.017,-0.046 0.008,-0.095 -0.025,-0.126 0.01,-0.042 0.032,-0.066 0.024,-0.131 l 0,-0.002 c 0.002,0 0.003,-0.001 0.004,-0.001 0.038,0.039 0.029,0.035 0.033,0.085 -0.002,0.005 -0.003,0.011 -0.004,0.015 -0.004,-0.004 -0.007,-0.008 -0.01,-0.013 -10e-4,0 -10e-4,0 -0.002,0 -0.005,0.033 0.028,0.116 0.035,0.151 0.004,0.023 -0.008,0.062 -0.002,0.089 0.014,0.064 0.021,0.201 0.074,0.241 0.002,-0.005 0.005,-0.009 0.008,-0.015 0.002,0.003 0.005,0.005 0.007,0.006 0.012,-0.037 -0.034,-0.093 -0.028,-0.143 -0.012,-0.008 -0.017,-0.014 -0.025,-0.027 0.002,-10e-4 0.004,-0.003 0.006,-0.005 0.004,0.004 0.008,0.009 0.012,0.013 0,-0.013 -0.006,-0.053 0.007,-0.065 0.003,-0.005 0,-0.002 0.006,-10e-4 0.001,-0.001 0.002,-0.003 0.004,-0.004 -0.007,-0.015 -0.014,-0.022 -0.013,-0.045 0.005,-0.004 0.004,-0.003 0.011,-0.005 -0.002,-0.008 -0.004,-0.017 -0.006,-0.026 0.003,0 0.006,10e-4 0.01,10e-4 0,-0.028 -0.011,-0.037 -0.025,-0.056 0.003,-0.026 0.015,-0.032 0.026,-0.052 -0.008,-0.009 -0.007,-0.014 -0.01,-0.027 0.02,-0.028 0.047,-0.216 0.008,-0.244 -0.009,-0.014 -0.009,-0.01 -0.004,-0.024 -0.007,-0.009 -0.011,-0.008 -0.021,-0.012 -0.03,-0.073 0.035,-0.092 0.036,-0.151 0.005,-0.002 0.009,-0.006 0.015,-0.009 0,0 0.238,0.008 0.38,0.011 0.005,0 -0.01,0.005 -0.017,0.01 -0.006,0.007 -0.034,0.151 -0.029,0.172 0.005,0.007 0.009,0.014 0.014,0.022 -0.02,0.046 0.012,0.093 0.03,0.133 0.015,0.037 0.029,0.072 0.043,0.108 0.014,0.016 0.041,0.012 0.049,0.042 0.005,0.02 -0.004,0.039 0.006,0.065 0.009,0.023 0.035,0.03 0.034,0.06 0.014,-10e-4 0.037,0.009 0.039,0.02 0.002,0.005 0.005,0.008 0.007,0.012 10e-4,-0.008 10e-4,-0.005 -0.002,-0.013 0.01,0.005 0.007,0.007 0.012,0.006 0.003,0.003 0.006,0.007 0.009,0.011 -0.003,0.003 -0.005,0.006 -0.007,0.01 0.037,-0.004 0.065,0.011 0.097,0.029 0.02,-0.005 0.012,0.009 0.01,0.02 0.005,0.006 0.011,0.008 0.018,0.012 0,-10e-4 10e-4,-0.002 0.002,-0.002 -0.003,-0.003 -0.006,-0.006 -0.009,-0.009 l 0.008,-0.004 c 0.009,-0.008 0.043,0.011 0.064,0.009 0.019,-0.002 0.062,-0.019 0.077,-0.027 0.002,0 0.004,0 0.006,10e-4 0,0.002 0,0.005 0,0.008 -0.005,0 -0.009,0.001 -0.014,0.001 -10e-4,0.002 -0.002,0.004 -0.002,0.007 0.005,0.002 0.011,0.003 0.016,0.005 0.002,-0.008 0.015,-0.02 0.021,-0.028 -0.001,-0.001 -0.002,-0.002 -0.004,-0.003 -0.001,-0.002 -0.002,-0.004 -0.004,-0.006 0.007,-0.006 0.014,-0.011 0.02,-0.016 0.011,0.004 0.021,0.008 0.03,0.012 0.002,-0.005 0.003,-0.01 0.004,-0.014 0.016,0.003 0.017,0.011 0.026,0.02 0.008,-0.009 0.016,-0.022 0.027,-0.028 0.002,-0.001 0.004,-0.002 0.006,-0.003 10e-4,0 0.002,0 0.002,0 l 0.009,0.01 c -0.007,0.007 -0.014,0.013 -0.021,0.021 -0.001,0.001 -0.002,0.002 -0.004,0.004 0.006,0.007 0.011,0.009 0.023,0.011 0.005,0.008 0.003,0.007 0.002,0.02 -0.005,-0.003 -0.011,-0.007 -0.016,-0.01 -10e-4,0 -0.002,0 -0.002,0 -0.002,0.002 -0.003,0.003 -0.004,0.006 0.033,0.021 0.071,0.016 0.105,0.01 0.002,0.005 0.005,0.01 0.007,0.015 0.002,0.001 0.004,0.002 0.006,0.005 0,-0.01 0,-0.019 0,-0.028 0.048,-0.006 0.083,0.013 0.119,-0.025 0.008,-0.008 0.008,-0.025 0.012,-0.029"
         style="fill:#1a1a1a;fill-opacity:1;fill-rule:nonzero;stroke:none"
         id="path3282" />
    </g>
    <g
       id="g3284"
       transform="matrix(63.702707,0,0,-63.702707,2282.6953,-1.2280987)"
       style="fill:#1a1a1a">
      <path
         inkscape:connector-curvature="0"
         d="M 0,0 C -0.01,-0.003 -0.019,-0.006 -0.028,-0.01 -0.029,-0.013 -0.03,-0.017 -0.031,-0.02 l 0,-0.002 c 0.015,-0.008 0.062,-0.017 0.081,-0.007 0.004,0.004 0.01,0.008 0.014,0.012 0,0.003 0,0.005 0,0.007 C 0.043,-0.005 0.028,0 0,0 m 0.113,-0.007 c 0.004,-0.004 0,-0.001 0.006,-0.004 -0.002,10e-4 -0.004,0.003 -0.006,0.004 M -0.23,-0.102 c -0.003,0.003 -0.005,0.006 -0.008,0.01 -0.011,0.007 -0.025,0.01 -0.039,0.009 0.002,0.005 0.006,0.01 0.007,0.015 -0.017,0.01 -0.05,0.021 -0.061,0.036 -0.008,0.007 0.002,0.018 -0.012,0.024 -0.002,-0.002 -0.003,-0.004 -0.005,-0.006 -0.039,0.004 -0.083,-0.016 -0.096,-0.043 -0.019,0.001 -0.037,0.001 -0.049,-0.008 0.012,-0.007 0.041,-0.005 0.056,-0.005 -0.004,-0.002 -0.006,-0.004 -0.009,-0.006 -0.002,-0.004 -0.004,-0.008 -0.007,-0.012 0.032,-0.006 0.084,0.003 0.103,0.016 0.013,-0.003 0.025,-0.006 0.036,-0.009 -0.003,-0.002 -0.007,-0.003 -0.01,-0.004 0.02,-0.018 0.057,-0.019 0.094,-0.017"
         style="fill:#1a1a1a;fill-opacity:1;fill-rule:nonzero;stroke:none"
         id="path3286" />
    </g>
    <g
       id="g3288"
       transform="matrix(63.702707,0,0,-63.702707,2260.6542,0.42817127)"
       style="fill:#1a1a1a">
      <path
         inkscape:connector-curvature="0"
         d="M 0,0 C -0.002,0.002 -0.004,0.004 -0.006,0.006 -0.007,0.002 -0.009,-0.002 -0.011,-0.006 -0.006,-0.004 -0.001,-0.002 0.004,0 L 0,0 z m 0.58,-0.078 c -0.003,0.002 -0.005,0.004 -0.008,0.006 0.008,0.006 0.005,-0.001 0.004,0.009 -0.027,0.001 -0.023,0.011 -0.043,0.016 -0.005,-0.002 -0.01,-0.005 -0.015,-0.008 0.004,-0.008 0.004,-0.009 0,-0.018 0.028,0.001 0.036,-0.001 0.062,-0.005 m 0.174,0.024 C 0.753,-0.055 0.753,-0.057 0.752,-0.058 c 0.001,0 0.003,0 0.004,0 -0.001,0.001 -0.001,0.003 -0.002,0.004"
         style="fill:#1a1a1a;fill-opacity:1;fill-rule:nonzero;stroke:none"
         id="path3290" />
    </g>
    <g
       id="g3292"
       transform="matrix(63.702707,0,0,-63.702707,2297.8566,4.8873613)"
       style="fill:#1a1a1a">
      <path
         inkscape:connector-curvature="0"
         d="M 0,0 C 0.004,-0.004 0,-0.001 0.006,-0.004 0.004,-0.003 0.002,-0.001 0,0 m -0.618,-0.009 c -0.011,-0.003 -0.022,-0.006 -0.035,-0.01 0.001,-0.004 0.002,-0.009 0.002,-0.013 0.032,0.003 0.062,0.001 0.091,0.009 0,0.002 0.001,0.003 0.002,0.004 -0.02,0.004 -0.04,0.007 -0.06,0.01"
         style="fill:#1a1a1a;fill-opacity:1;fill-rule:nonzero;stroke:none"
         id="path3294" />
    </g>
    <g
       id="g3296"
       transform="matrix(63.702707,0,0,-63.702707,2273.9655,5.5906393)"
       style="fill:#1a1a1a">
      <path
         inkscape:connector-curvature="0"
         d="m 0,0 c 0,-0.002 0,-0.004 0,-0.006 l 0.014,0 0,0.002 C 0.01,-0.003 0.005,-0.001 0,0 m 0.312,-0.033 c -0.005,0.012 -0.022,0.019 -0.036,0.023 0.001,-0.005 0.001,-0.01 0.002,-0.015 -0.006,0 -0.013,0 -0.02,0.001 C 0.26,-0.026 0.26,-0.027 0.261,-0.028 0.282,-0.031 0.3,-0.034 0.316,-0.039 0.315,-0.037 0.313,-0.035 0.312,-0.033 m -0.35,0.021 c -0.001,-10e-4 -0.001,-0.003 -0.002,-0.004 0.006,-0.004 0.01,-0.008 0.015,-0.012 0.006,0 0.013,-0.002 0.019,-0.003 0,0.001 0.001,0.003 0.002,0.003 0,0.002 0,0.004 0,0.006 -0.011,0.003 -0.022,0.007 -0.034,0.01"
         style="fill:#1a1a1a;fill-opacity:1;fill-rule:nonzero;stroke:none"
         id="path3298" />
    </g>
    <g
       id="g3300"
       transform="matrix(63.702707,0,0,-63.702707,2275.8766,6.7372883)"
       style="fill:#1a1a1a">
      <path
         inkscape:connector-curvature="0"
         d="m 0,0 c -0.007,0.001 -0.014,0.003 -0.021,0.004 0.004,-0.009 0.009,-0.01 0.017,-0.016 0.002,0 0.006,0 0.009,0 0.001,0.002 0.001,0.003 0.002,0.004 C 0.005,-0.005 0.003,-0.003 0,0 m -0.154,-0.018 c -0.007,-0.003 -0.015,-0.005 -0.022,-0.008 -0.001,-0.002 -0.003,-0.005 -0.004,-0.008 0.002,-0.003 0.004,-0.006 0.006,-0.009 0.016,-0.003 0.024,0.006 0.038,0.009 0.003,0.003 0.006,0.005 0.008,0.008 -0.009,0.005 -0.013,0.007 -0.026,0.008 M 0.172,-0.03 c 0,-0.001 0,-0.003 0,-0.004 0.002,0.001 0.004,0.001 0.006,0.002 0,0.001 0,0.001 0,0.002 -0.002,0 -0.004,0 -0.006,0"
         style="fill:#1a1a1a;fill-opacity:1;fill-rule:nonzero;stroke:none"
         id="path3302" />
    </g>
    <g
       id="g3304"
       transform="matrix(63.702707,0,0,-63.702707,2280.5294,9.6013613)"
       style="fill:#1a1a1a">
      <path
         inkscape:connector-curvature="0"
         d="m 0,0 c 0.004,-0.006 0.009,-0.007 0.016,-0.01 0.003,0 0.006,0 0.009,0 C 0.019,-0.005 0.009,-0.002 0,0 m 1.061,-0.048 c 0.004,-0.004 0,-0.001 0.006,-0.004 -0.004,0.004 0,0.001 -0.006,0.004 m -1.279,0.015 c 0.001,-0.001 0.003,-0.003 0.004,-0.004 0.004,0 0.008,0 0.014,0 l 0,0.002 c -0.007,0.001 -0.012,0.001 -0.018,0.002 M 1.884,-0.195 C 1.868,-0.2 1.86,-0.188 1.846,-0.18 1.842,-0.18 1.839,-0.181 1.835,-0.181 1.837,-0.183 1.84,-0.185 1.842,-0.188 1.818,-0.193 1.789,-0.177 1.764,-0.171 1.763,-0.172 1.763,-0.173 1.762,-0.173 1.763,-0.176 1.766,-0.179 1.767,-0.182 1.756,-0.174 1.748,-0.166 1.732,-0.164 l 0,-0.002 C 1.737,-0.17 1.741,-0.174 1.745,-0.179 l 0,-0.002 C 1.734,-0.177 1.737,-0.175 1.728,-0.182 1.704,-0.163 1.683,-0.136 1.643,-0.132 1.646,-0.135 1.649,-0.139 1.653,-0.142 1.647,-0.14 1.642,-0.138 1.635,-0.135 1.63,-0.14 1.624,-0.144 1.619,-0.149 1.618,-0.15 1.617,-0.152 1.617,-0.154 1.645,-0.161 1.673,-0.168 1.7,-0.175 1.686,-0.184 1.672,-0.18 1.649,-0.176 1.648,-0.177 1.647,-0.178 1.647,-0.178 c 0,-0.002 10e-4,-0.003 0.002,-0.004 0.039,-0.01 0.055,-0.021 0.081,-0.034 0,-0.002 0.001,-0.003 0.002,-0.005 C 1.725,-0.219 1.718,-0.217 1.711,-0.215 1.71,-0.216 1.71,-0.217 1.709,-0.217 c 10e-4,-0.004 0.003,-0.007 0.004,-0.01 0.059,-0.015 0.201,-0.086 0.25,-0.03 l 0,0.003 c -0.025,0.016 -0.062,0.04 -0.079,0.059"
         style="fill:#1a1a1a;fill-opacity:1;fill-rule:nonzero;stroke:none"
         id="path3306" />
    </g>
    <g
       id="g3308"
       transform="matrix(63.702707,0,0,-63.702707,2291.1041,15.716821)"
       style="fill:#1a1a1a">
      <path
         inkscape:connector-curvature="0"
         d="M 0,0 C 0,-0.001 0,-0.003 0,-0.004 0.001,-0.003 0.003,-0.001 0.004,0 0.003,0 0.001,0 0,0 m 0.2,-0.012 c 0.004,-0.005 0.002,-0.004 0.01,-0.006 0,10e-4 0,10e-4 0,0.002 -0.004,0.003 -0.002,0.003 -0.01,0.004 m 0.049,-0.009 c -0.006,0.001 -0.011,0.003 -0.017,0.004 -0.002,-0.007 0,-0.006 -0.015,-0.005 0,-0.001 0,-0.002 0,-0.002 0.007,-0.009 0.017,-0.015 0.028,-0.018 0.003,0.003 0.007,0.005 0.011,0.008 -0.003,0.004 -0.005,0.009 -0.007,0.013"
         style="fill:#1a1a1a;fill-opacity:1;fill-rule:nonzero;stroke:none"
         id="path3310" />
    </g>
    <g
       id="g3312"
       transform="matrix(63.702707,0,0,-63.702707,2296.2615,17.882713)"
       style="fill:#1a1a1a">
      <path
         inkscape:connector-curvature="0"
         d="M 0,0 C -0.003,0.001 -0.007,0.001 -0.01,0.002 -0.013,0.001 -0.015,0 -0.017,-0.002 -0.018,-0.004 -0.02,-0.006 -0.021,-0.008 -0.014,-0.013 -0.002,-0.012 0.008,-0.01 0.009,-0.009 0.011,-0.008 0.011,-0.006 0.007,-0.004 0.003,-0.002 0,0 m 3.337,-1.848 c -0.011,0.021 -0.021,0.044 -0.032,0.066 0.002,-0.003 0.004,-0.006 0.007,-0.009 0.001,0 0.002,-0.001 0.004,-0.003 l 0,0.005 c 0.002,0.01 -0.01,0.023 -0.017,0.034 0.002,0 0.003,10e-4 0.004,10e-4 0.005,-0.005 0.01,-0.011 0.015,-0.016 0,0 10e-4,0 0.002,0 -0.004,0.008 -0.007,0.018 -0.01,0.026 0.007,-0.007 0.014,-0.015 0.023,-0.023 -0.011,0.024 -0.04,0.072 -0.063,0.082 0.003,0.009 -10e-4,0.006 0.008,0.004 -0.007,0.027 -0.048,0.052 -0.053,0.092 10e-4,0 10e-4,0 0.003,0 0.003,-0.023 0.019,-0.017 0.029,-0.026 0,0 10e-4,0 0.002,0 -0.009,0.011 -0.017,0.024 -0.025,0.036 0.004,0.003 0.008,0.006 0.012,0.009 0.011,0.008 0.019,-0.015 0.032,-0.015 10e-4,-0.009 0.002,-0.01 0.004,-0.02 0.002,0.026 -10e-4,0.059 -0.005,0.068 -0.011,0.013 -0.019,0.032 -0.029,0.049 -0.032,0.053 -0.056,0.098 -0.079,0.16 -0.006,0.015 -0.202,0.32 -0.451,0.555 C 2.46,-0.532 2.149,-0.364 2.153,-0.363 2.146,-0.37 2.14,-0.376 2.129,-0.379 2.131,-0.393 2.128,-0.394 2.134,-0.402 2.127,-0.404 2.123,-0.407 2.115,-0.411 2.123,-0.423 2.133,-0.43 2.14,-0.439 c 0.002,-0.009 0.003,-0.016 0.006,-0.023 0.019,-0.03 0.06,-0.044 0.076,-0.08 0.01,-0.002 0.01,0.001 0.017,0.005 0.002,-0.009 0.006,-0.017 0.009,-0.026 0.01,-0.013 0.067,-0.045 0.088,-0.033 0.01,0.006 0.011,0.021 0.007,0.034 0.004,0.001 0.008,0.003 0.012,0.005 -10e-4,0.003 -0.003,0.006 -0.004,0.01 0,0 0,0.001 0,0.003 0.06,-0.029 0.09,-0.104 0.152,-0.129 C 2.507,-0.681 2.51,-0.688 2.513,-0.696 2.502,-0.699 2.501,-0.705 2.496,-0.712 2.508,-0.728 2.522,-0.74 2.541,-0.75 2.535,-0.758 2.537,-0.753 2.526,-0.751 c 0,0 0,-0.001 0,-0.002 0.005,-0.007 0.009,-0.01 0.018,-0.014 0.004,-0.001 0.008,-0.001 0.012,-0.001 0,0.005 0,0.01 0,0.016 -0.006,0.006 -0.013,0.019 -0.024,0.023 0,0.007 -10e-4,0.003 0.004,0.008 -0.004,0.005 -0.007,0.011 -0.013,0.015 0.005,-0.006 0.009,-0.01 0.013,-0.015 0.004,-0.004 0.009,-0.007 0.012,-0.012 0.008,-0.001 0.016,-0.001 0.025,-0.002 10e-4,0 10e-4,0 0.002,0 l 0,0.006 C 2.569,-0.722 2.563,-0.715 2.557,-0.708 2.56,-0.702 2.56,-0.705 2.559,-0.698 2.567,-0.699 2.576,-0.7 2.583,-0.701 2.58,-0.696 2.577,-0.691 2.574,-0.685 2.579,-0.689 2.664,-0.765 2.66,-0.768 2.648,-0.774 2.651,-0.78 2.654,-0.792 2.651,-0.793 2.647,-0.794 2.644,-0.795 c -0.015,-0.018 -0.019,-0.002 -0.036,0 -0.008,0.007 -0.005,0.002 -0.002,0.01 -0.008,0.005 -0.014,0.012 -0.02,0.017 0,-0.004 0,-0.007 0,-0.012 C 2.582,-0.779 2.578,-0.779 2.574,-0.778 2.576,-0.79 2.57,-0.786 2.567,-0.801 2.563,-0.8 2.56,-0.799 2.557,-0.798 2.553,-0.794 2.551,-0.783 2.55,-0.778 2.546,-0.773 2.547,-0.773 2.54,-0.771 2.541,-0.774 2.542,-0.777 2.544,-0.78 c -0.018,0 -0.031,0.015 -0.044,0.025 -0.004,0.001 0,0.001 0.002,0.003 -0.005,0.006 -0.008,0.009 -0.018,0.01 -10e-4,0.001 -0.002,0.003 -0.002,0.004 0,0.001 10e-4,0.003 0.002,0.004 0.014,-0.008 0.028,-0.018 0.042,-0.026 -0.008,0.019 -0.028,0.048 -0.051,0.04 -0.006,0.006 -0.008,0.022 -0.014,0.031 0.003,-0.002 0.006,-0.003 0.009,-0.005 0,0.004 10e-4,0.007 0.002,0.01 -0.02,0.023 -0.048,0.035 -0.058,0.067 C 2.41,-0.619 2.405,-0.621 2.4,-0.623 2.402,-0.629 2.403,-0.634 2.405,-0.64 c -0.003,0 -0.006,0 -0.008,0 C 2.393,-0.642 2.39,-0.645 2.386,-0.646 2.393,-0.684 2.47,-0.742 2.466,-0.76 2.471,-0.76 2.477,-0.761 2.482,-0.762 2.491,-0.778 2.499,-0.786 2.51,-0.802 2.501,-0.805 2.504,-0.801 2.505,-0.814 2.493,-0.81 2.491,-0.807 2.474,-0.809 l 0,-0.009 C 2.464,-0.819 2.454,-0.82 2.445,-0.821 l -0.004,-0.01 c 0.002,-0.004 0.005,-0.009 0.008,-0.015 0.008,-0.004 0.006,-0.003 0.015,0 0.005,-0.012 0.01,-0.014 0.008,-0.024 -0.005,-0.008 -10e-4,-0.005 -0.01,-0.002 -0.001,0 -0.001,0 -0.002,0 0.002,-0.016 10e-4,-0.018 0.008,-0.027 -0.005,0.001 -0.011,0.002 -0.016,0.003 -0.007,0.021 -0.016,0.042 -0.023,0.064 -10e-4,0 -0.002,0.001 -0.004,0.002 l -0.002,0 C 2.43,-0.858 2.454,-0.904 2.437,-0.92 2.426,-0.93 2.404,-0.932 2.395,-0.945 2.4,-0.958 2.407,-0.971 2.413,-0.985 2.405,-0.991 2.4,-0.994 2.389,-0.996 2.384,-1.003 2.379,-1.01 2.389,-1.017 2.387,-1.019 2.385,-1.021 2.383,-1.023 2.356,-1.028 2.327,-1.005 2.308,-0.999 2.306,-0.999 2.306,-1 2.305,-1.001 2.318,-1.019 2.333,-1.029 2.341,-1.051 2.343,-1.053 2.345,-1.056 2.347,-1.058 l 0,-0.002 C 2.33,-1.057 2.32,-1.054 2.309,-1.063 2.299,-1.057 2.291,-1.051 2.283,-1.045 2.268,-1.052 2.245,-1.049 2.233,-1.061 2.232,-1.062 2.23,-1.062 2.229,-1.062 2.232,-1.08 2.246,-1.078 2.257,-1.087 2.253,-1.087 2.249,-1.088 2.244,-1.089 2.267,-1.11 2.3,-1.104 2.332,-1.116 2.334,-1.116 2.434,-1.21 2.435,-1.215 2.431,-1.213 2.428,-1.21 2.425,-1.207 2.424,-1.208 2.423,-1.208 2.423,-1.209 2.448,-1.244 2.476,-1.294 2.476,-1.36 2.439,-1.375 2.352,-1.35 2.303,-1.344 2.29,-1.343 2.258,-1.357 2.238,-1.35 2.229,-1.347 2.225,-1.339 2.211,-1.343 2.198,-1.34 2.192,-1.353 2.197,-1.363 2.187,-1.367 2.173,-1.367 2.169,-1.376 2.166,-1.378 2.164,-1.379 2.161,-1.381 c 10e-4,-0.022 0.013,-0.02 0.016,-0.036 0.007,0.001 0.006,0.001 0.012,0.004 0.004,-0.036 0.026,-0.062 0.038,-0.097 0.011,-0.03 0.005,-0.12 -0.002,-0.151 0.01,-0.009 0.015,-0.015 0.024,-0.025 0.004,0.003 0.008,0.005 0.013,0.008 0.01,-0.029 0.019,-0.059 0.018,-0.103 0.018,0.006 0.044,-0.005 0.055,-0.001 0.007,0.002 0.011,0.011 0.024,0.014 0.036,0.017 0.055,-0.071 0.094,-0.078 0.008,0.008 0.039,0.038 0.042,0.045 0.029,10e-4 0.049,0.005 0.072,-0.003 10e-4,0.003 0.003,0.006 0.005,0.01 0.012,-0.002 0.012,-0.003 0.018,-0.008 0.007,0.015 0.012,0.041 0.019,0.054 0.007,0.003 0.01,0.004 0.023,0.004 0,0.012 -0.009,0.032 -0.002,0.054 0.004,0.012 0.015,0.012 0.018,0.029 -0.064,0.043 -0.006,0.099 -0.024,0.134 0.011,0.016 0.022,0.01 0.038,0.022 0.01,0.006 0.02,0.027 0.027,0.035 -0.003,0.024 -0.04,0.058 -0.031,0.083 0.002,0.007 0.013,0.012 0.017,0.02 0.033,-0.01 0.053,-0.024 0.082,-0.036 0.014,0.014 0.011,0.04 0.036,0.043 0.002,0.01 0.004,0.019 0.007,0.03 l 0,0.004 c 0.057,-0.011 0.09,-0.089 0.119,-0.129 0,0 0.081,-0.078 0.084,-0.08 C 3.005,-1.536 3.014,-1.53 3.021,-1.536 3.026,-1.544 3.032,-1.552 3.037,-1.561 3.098,-1.619 3.116,-1.636 3.143,-1.724 3.137,-1.727 3.124,-1.73 3.118,-1.74 3.097,-1.739 3.097,-1.737 3.084,-1.726 3.081,-1.731 3.081,-1.73 3.08,-1.737 3.077,-1.735 3.075,-1.733 3.072,-1.73 c -10e-4,0 -0.002,0 -0.002,0 -10e-4,-0.009 -0.003,-0.019 0.002,-0.028 0.003,-0.008 0.08,-0.069 0.09,-0.073 10e-4,0 0.002,0 0.002,0 -0.005,0.032 -0.021,0.05 -0.021,0.089 0.004,-0.003 0.008,-0.006 0.012,-0.009 0.001,0 0.002,0 0.002,0 0.005,0.016 10e-4,0.038 -0.006,0.052 0.002,0.012 0.001,0.009 0.009,0.013 -0.007,0.027 -0.02,0.03 -0.034,0.047 -0.004,0.017 -0.008,0.033 -0.012,0.05 0.001,10e-4 0.003,0.002 0.004,0.003 0.009,-0.014 0.033,-0.038 0.047,-0.047 -0.012,0.047 -0.057,0.086 -0.097,0.106 -0.005,0.008 -0.007,0.013 -0.007,0.028 -0.012,0.007 -0.022,0.002 -0.035,0.013 -0.031,0.025 -0.045,0.065 -0.069,0.096 -0.021,0.028 -0.061,0.038 -0.072,0.075 0.001,0.005 0.002,0.009 0.002,0.015 -0.004,0.011 -0.016,0.014 -0.02,0.029 0.011,0.003 0.011,0.006 0.016,0.014 0.003,-0.001 0.006,-0.001 0.008,-0.001 0.008,-0.01 0.024,-0.039 0.03,-0.054 0.001,-10e-4 0.003,-0.002 0.004,-0.003 l 0.002,0.016 c 0.003,-0.009 0.008,-0.016 0.011,-0.023 0.002,-10e-4 0.004,-0.003 0.006,-0.005 -0.002,0.007 -0.005,0.013 -0.008,0.02 0.02,-0.008 0.027,-0.042 0.038,-0.054 0.015,-0.019 0.038,-0.03 0.052,-0.044 -0.003,0 -0.006,0.001 -0.008,0.002 0.005,-0.009 0.009,-0.012 0.015,-0.02 0.003,0 0.007,0 0.01,-10e-4 -0.003,0.003 -0.007,0.007 -0.01,0.01 10e-4,0 0.002,10e-4 0.004,10e-4 C 3.041,-1.416 3.045,-1.419 3.049,-1.422 3.05,-1.424 3.05,-1.425 3.051,-1.427 3.047,-1.428 3.043,-1.429 3.039,-1.43 c 0.008,-0.009 0.007,0 0.018,-0.006 0.024,-0.012 0.062,-0.052 0.076,-0.074 0.012,-0.031 0.023,-0.062 0.036,-0.094 0.014,-0.026 0.046,-0.053 0.059,-0.082 0.005,10e-4 0,0 0.006,0.002 0,-0.002 -0.005,-0.011 0,-0.022 C 3.24,-1.715 3.252,-1.727 3.268,-1.73 3.264,-1.742 3.264,-1.738 3.263,-1.755 3.278,-1.777 3.292,-1.797 3.301,-1.824 3.303,-1.827 3.305,-1.828 3.307,-1.83 c 10e-4,0 0.002,0 0.002,0 -0.001,0.006 -0.002,0.011 -0.004,0.016 10e-4,0 0.002,0 0.002,0 0.005,-0.011 0.01,-0.022 0.015,-0.033 10e-4,-0.001 0.002,-0.002 0.004,-0.002 -0.002,0.005 -0.003,0.011 -0.004,0.016 0.004,-0.005 0.009,-0.01 0.013,-0.015 10e-4,0 10e-4,0 0.002,0 m -4.111,1.686 c -0.012,0.006 -0.026,0.008 -0.044,0.01 -0.003,-0.002 -0.007,-0.003 -0.01,-0.004 0.006,-0.012 0.038,-0.023 0.053,-0.027 l 0.003,0 c 0.002,0.01 0,0.014 -0.002,0.021"
         style="fill:#1a1a1a;fill-opacity:1;fill-rule:nonzero;stroke:none"
         id="path3314" />
    </g>
    <g
       id="g3316"
       transform="matrix(63.702707,0,0,-63.702707,2314.4804,32.21837)"
       style="fill:#1a1a1a">
      <path
         inkscape:connector-curvature="0"
         d="m 0,0 c 0.004,-0.007 -0.001,-0.002 0.006,-0.006 0.001,0 0.002,0 0.002,0 10e-4,0.001 0.002,0.002 0.002,0.004 C 0.007,-0.002 0.003,-0.001 0,0 m 0.113,-0.102 c 0.001,-0.002 0.003,-0.004 0.004,-0.006 0.002,0 0.003,0 0.003,0 l 0,0.002 C 0.117,-0.105 0.115,-0.103 0.113,-0.102 M 0.042,-0.139 C 0.037,-0.14 0.032,-0.141 0.027,-0.144 0.025,-0.157 0.025,-0.148 0.021,-0.156 c 0.03,0.002 0.057,0.006 0.084,0.008 -0.021,0.002 -0.042,0.006 -0.063,0.009 m 0.139,-0.043 c 0,-0.006 -0.002,-0.003 0.004,-0.009 0.001,0.001 0.003,0.003 0.005,0.005 0,0 0,0.001 0,0.002 -0.002,0 -0.005,0.001 -0.009,0.002 m -0.448,-0.071 c -0.001,-0.001 -0.001,-0.003 -0.002,-0.004 0.048,-0.031 0.082,-0.056 0.146,-0.076 0.001,0.001 0.003,0.002 0.004,0.002 0,0.002 0,0.004 0,0.006 -0.034,0.03 -0.091,0.069 -0.148,0.072 M 0.274,-0.287 C 0.273,-0.289 0.273,-0.292 0.272,-0.293 c 0.007,0.003 0.003,-0.002 0.006,0.006 -0.001,0 -0.002,0 -0.004,0 m 1.822,-0.417 c -10e-4,0.004 -0.003,0.009 -0.004,0.013 -0.011,0.001 -0.021,0.002 -0.03,0.003 0.004,0.008 0.015,0.022 0.012,0.036 -0.005,0.021 -0.043,0.063 -0.067,0.036 -0.002,0.001 -0.004,0.002 -0.006,0.002 -0.014,0.028 -0.034,0.06 -0.068,0.08 -0.014,0.007 -0.026,0.012 -0.039,0.018 -0.034,0.033 -0.051,0.059 -0.105,0.06 0.007,0.004 0.012,0.007 0.018,0.011 -0.004,0.003 -0.007,0.006 -0.011,0.008 0.008,0.018 -0.001,0.031 0.002,0.048 -0.02,0.018 -0.055,0.014 -0.081,0.008 0,0.013 0.004,0.008 -0.007,0.013 0.003,0.01 0.007,0.015 0.016,0.02 -0.003,0.005 -0.004,0.009 -0.005,0.015 -0.022,0.005 -0.044,-0.006 -0.065,0.002 -0.005,-0.007 -0.004,-0.008 0,-0.015 C 1.652,-0.355 1.654,-0.356 1.661,-0.364 1.66,-0.365 1.657,-0.365 1.656,-0.366 1.649,-0.365 1.652,-0.364 1.648,-0.371 1.652,-0.378 1.656,-0.384 1.661,-0.391 l 0,-0.002 C 1.651,-0.386 1.642,-0.38 1.633,-0.373 1.629,-0.381 1.63,-0.377 1.624,-0.385 1.635,-0.397 1.658,-0.405 1.67,-0.406 1.672,-0.409 1.673,-0.412 1.674,-0.414 1.671,-0.416 1.667,-0.418 1.664,-0.42 1.669,-0.431 1.672,-0.431 1.67,-0.444 c 0.007,0.001 0.014,0.002 0.021,0.003 10e-4,0.003 0.003,0.007 0.003,0.011 l 0,0.004 0.002,0 c 0.004,-0.023 0.016,-0.04 0.022,-0.064 0.003,0 0.006,0 0.01,0 0,0.001 0.001,0.003 0.002,0.004 -0.002,0.003 -0.003,0.007 -0.006,0.01 0.006,-0.003 0.01,-0.005 0.014,-0.008 0.001,0 0.002,0 0.002,0 -0.002,0.007 -0.004,0.014 -0.006,0.021 0.005,-0.004 0.011,-0.009 0.017,-0.013 0.004,-0.009 0.004,-0.018 0,-0.031 0.006,-0.005 0.014,-0.01 0.02,-0.016 l 0.002,0 C 1.772,-0.52 1.77,-0.517 1.769,-0.515 l 0,0.002 C 1.775,-0.515 1.781,-0.518 1.788,-0.52 l 0,0.008 c 0.015,-0.006 0.02,-0.002 0.03,0.006 0.016,-0.018 0.009,-0.047 0.044,-0.041 10e-4,-0.018 0.005,-0.024 0.011,-0.035 -0.017,-0.013 -0.034,-0.003 -0.052,0 0.003,-0.014 0.008,-0.011 0.016,-0.019 -0.003,-0.004 -0.006,-0.007 -0.008,-0.01 0,-0.002 0.001,-0.003 0.002,-0.004 0.005,0.002 0.011,0.004 0.017,0.006 C 1.853,-0.616 1.86,-0.624 1.866,-0.632 1.863,-0.645 1.851,-0.651 1.838,-0.652 1.836,-0.655 1.833,-0.657 1.831,-0.659 c 0.007,-0.007 0.014,-0.013 0.021,-0.019 0.024,0.012 0.045,-0.003 0.069,-0.011 0.007,0.003 0.013,0.006 0.018,0.008 -0.003,-0.007 -0.002,-0.006 -0.002,-0.014 -0.015,0 -0.029,0 -0.043,0 0.001,-0.02 -0.013,-0.042 -0.029,-0.057 0,-0.002 0,-0.003 0,-0.004 0.011,-0.001 0.012,0.001 0.023,-0.007 0.007,0.009 0.003,0.016 0.019,0.02 0.011,0.003 0.024,-0.003 0.035,-0.006 0.001,0.007 -0.002,0.02 0.004,0.025 0,0 0.069,-0.006 0.071,-0.006 0.002,0 0.005,0 0.007,0 -0.002,0.003 -0.004,0.006 -0.005,0.01 0.033,-0.002 0.049,-0.001 0.075,0.012 0.001,0.001 0.001,0.003 0.002,0.004"
         style="fill:#1a1a1a;fill-opacity:1;fill-rule:nonzero;stroke:none"
         id="path3318" />
    </g>
    <g
       id="g3320"
       transform="matrix(63.702707,0,0,-63.702707,2340.1552,66.551581)"
       style="fill:#1a1a1a">
      <path
         inkscape:connector-curvature="0"
         d="m 0,0 c -0.01,0.003 -0.012,-0.006 -0.03,-0.009 -0.001,0.003 -0.002,0.006 -0.002,0.008 0.005,0.009 0.013,0.014 0.024,0.018 0,0.002 0.001,0.004 0.002,0.005 C -0.007,0.023 -0.008,0.023 -0.008,0.024 -0.036,0.022 -0.041,0.016 -0.056,0.005 -0.058,0.008 -0.059,0.01 -0.061,0.013 -0.066,0.014 -0.062,0.011 -0.067,0.015 c 0.015,0.014 0.047,0.022 0.053,0.028 0.001,0.001 0.002,0.002 0.004,0.004 -0.009,0.009 -0.032,0.007 -0.049,0.009 0.006,0.013 10e-4,0.004 -0.001,0.021 0.012,0.002 0.017,0.004 0.024,0.012 C -0.05,0.101 -0.073,0.114 -0.093,0.11 -0.101,0.12 -0.094,0.125 -0.107,0.13 -0.113,0.128 -0.107,0.126 -0.114,0.129 -0.115,0.123 -0.116,0.125 -0.112,0.12 -0.116,0.12 -0.12,0.121 -0.125,0.121 -0.137,0.12 -0.133,0.12 -0.132,0.131 -0.142,0.13 -0.138,0.132 -0.14,0.126 -0.148,0.13 -0.152,0.133 -0.162,0.133 c 0.001,0.002 0.003,0.004 0.004,0.006 -0.008,0.004 -0.002,0.002 -0.01,0 -0.002,0.002 -0.003,0.003 -0.004,0.004 0,0.003 0,0.006 0,0.01 0.008,0 0.016,0 0.026,0.001 l 0,0.002 c -0.014,0.009 -0.028,0.009 -0.042,0.02 -0.013,-0.005 -0.025,-0.01 -0.039,-0.015 0.006,0.022 0.045,0.04 0.066,0.045 0.002,0.004 0.005,0.007 0.009,0.011 -0.007,0.005 -0.007,0.006 -0.018,0.007 l 0,0.004 c 0.011,-0.003 0.019,-0.006 0.031,-0.005 0.001,0.001 0.002,0.003 0.004,0.004 0,0.002 0.001,0.004 0.002,0.006 -0.011,0.003 -0.023,0.006 -0.035,0.01 C -0.18,0.242 -0.194,0.242 -0.206,0.242 -0.215,0.24 -0.238,0.227 -0.25,0.221 -0.273,0.209 -0.282,0.18 -0.313,0.173 c -0.004,-0.008 -0.003,-0.006 0,-0.015 l 0,-0.002 C -0.322,0.158 -0.319,0.157 -0.324,0.161 -0.338,0.158 -0.344,0.148 -0.352,0.139 -0.348,0.135 -0.343,0.131 -0.339,0.128 -0.357,0.131 -0.379,0.121 -0.4,0.118 -0.399,0.11 -0.398,0.103 -0.396,0.096 -0.36,0.087 -0.215,0.058 -0.203,0.045 c -0.003,0 -0.006,0.001 -0.009,0.001 0.014,-0.006 0.029,-0.011 0.043,-0.017 0.004,0.004 0.003,0.003 0.004,0.01 0.01,-0.003 0.02,-0.007 0.029,-0.011 C -0.155,0.021 -0.173,0.016 -0.203,0.019 -0.204,0.015 -0.205,0.012 -0.206,0.01 c 0.046,-0.018 0.082,0.003 0.122,0.016 0.003,-0.004 0.006,-0.009 0.009,-0.012 -0.001,-0.018 -0.011,-0.023 -0.023,-0.031 0.003,-0.008 0.002,-0.006 0.01,-0.011 0.01,0.003 0.019,0.006 0.029,0.009 -0.004,-0.007 -0.006,-0.01 -0.006,-0.024 0.012,-0.003 0.021,-0.006 0.032,-0.009 0.017,0.009 0.021,0.025 0.035,0.034 C 0.001,-0.011 0.001,-0.006 0,0 M 1.216,0.2 C 1.212,0.201 1.209,0.201 1.205,0.202 1.2,0.197 1.194,0.191 1.188,0.187 1.195,0.18 1.198,0.177 1.199,0.17 1.202,0.169 1.204,0.168 1.206,0.166 1.211,0.171 1.215,0.175 1.221,0.179 1.219,0.186 1.217,0.193 1.216,0.2"
         style="fill:#1a1a1a;fill-opacity:1;fill-rule:nonzero;stroke:none"
         id="path3322" />
    </g>
    <g
       id="g3324"
       transform="matrix(63.702707,0,0,-63.702707,2330.5998,53.428824)"
       style="fill:#1a1a1a">
      <path
         inkscape:connector-curvature="0"
         d="M 0,0 0,-0.004 C 0.001,-0.003 0.003,-0.002 0.004,0 0.003,0 0.001,0 0,0 M 1.356,-0.044 C 1.353,-0.043 1.35,-0.041 1.347,-0.04 1.345,-0.041 1.341,-0.043 1.338,-0.044 1.347,-0.053 1.351,-0.059 1.356,-0.069 1.358,-0.07 1.361,-0.071 1.363,-0.071 1.36,-0.063 1.358,-0.054 1.356,-0.044"
         style="fill:#1a1a1a;fill-opacity:1;fill-rule:nonzero;stroke:none"
         id="path3326" />
    </g>
    <g
       id="g3328"
       transform="matrix(63.702707,0,0,-63.702707,2330.4724,53.938445)"
       style="fill:#1a1a1a">
      <path
         inkscape:connector-curvature="0"
         d="m 0,0 c 0.002,-0.002 0.004,-0.004 0.006,-0.006 0.002,0 0.003,0.001 0.004,0.001 l 0,0.002 C 0.007,-0.002 0.004,-0.001 0,0 m 1.898,-0.07 c 0.001,-0.002 0.004,-0.004 0.005,-0.006 10e-4,0 0.002,0 0.002,0 -0.005,0.007 10e-4,0.002 -0.007,0.006"
         style="fill:#1a1a1a;fill-opacity:1;fill-rule:nonzero;stroke:none"
         id="path3330" />
    </g>
    <g
       id="g3332"
       transform="matrix(63.702707,0,0,-63.702707,2419.4625,57.954264)"
       style="fill:#1a1a1a">
      <path
         inkscape:connector-curvature="0"
         d="m 0,0 c 0.002,-0.003 0.004,-0.005 0.006,-0.008 0.001,0.001 0.002,0.003 0.002,0.004 C 0.006,-0.003 0.003,-0.001 0,0 m -0.039,-0.003 c 0,-0.001 0,-0.003 0,-0.004 0.002,0.001 0.004,0.001 0.006,0.002 l 0,0.002 c -0.002,0 -0.004,0 -0.006,0 M 0.005,-0.019 C 0.004,-0.02 0.004,-0.02 0.003,-0.021 l 0,-0.002 c 0.001,-0.001 0.001,-0.001 0.002,-0.002 0.001,0 0.001,0 0.002,0 0.001,0.002 0.002,0.004 0.002,0.006 -10e-4,0 -0.003,0 -0.004,0 m -0.009,-0.006 0,-0.006 c 0.002,0 0.003,0 0.004,0 -0.002,0.006 0,0.002 -0.004,0.006 m -1.607,0.038 c -0.004,0 -0.008,0 -0.013,0 -10e-4,0 -0.002,-10e-4 -0.004,-10e-4 C -1.629,0.01 -1.629,0.008 -1.63,0.005 -1.62,0.003 -1.61,0.002 -1.601,0.001 -1.604,0.005 -1.608,0.009 -1.611,0.013"
         style="fill:#1a1a1a;fill-opacity:1;fill-rule:nonzero;stroke:none"
         id="path3334" />
    </g>
    <g
       id="g3336"
       transform="matrix(63.702707,0,0,-63.702707,2334.9927,58.591291)"
       style="fill:#1a1a1a">
      <path
         inkscape:connector-curvature="0"
         d="m 0,0 c -0.001,-0.003 -0.002,-0.005 -0.002,-0.008 0.005,0 0.011,-10e-4 0.016,-10e-4 C 0.011,0.001 0.012,-0.001 0,0 M 1.375,-0.033 C 1.369,-0.041 1.368,-0.044 1.357,-0.047 1.361,-0.06 1.364,-0.056 1.373,-0.062 c 0.006,0.006 0.009,0.021 0.002,0.029"
         style="fill:#1a1a1a;fill-opacity:1;fill-rule:nonzero;stroke:none"
         id="path3338" />
    </g>
    <g
       id="g3340"
       transform="matrix(63.702707,0,0,-63.702707,2421.5672,60.818338)"
       style="fill:#1a1a1a">
      <path
         inkscape:connector-curvature="0"
         d="m 0,0 c -0.001,-0.001 -0.001,-0.001 -0.002,-0.002 l 0,-0.002 c 0.001,-0.001 0.003,-0.001 0.004,-0.002 0.001,0.001 0.002,0.001 0.002,0.002 C 0.003,-0.003 0.001,-0.001 0,0 m -1.956,0.021 c -0.009,0.004 -0.006,0 -0.007,0.01 -0.01,0.01 -0.005,0.007 -0.002,0.02 -0.002,0 -0.004,0.001 -0.006,0.002 -0.008,-0.003 -0.016,-0.006 -0.025,-0.009 0,-0.002 -0.001,-0.003 -0.002,-0.004 0.023,-0.021 0.044,-0.033 0.076,-0.046 0.007,-0.004 0.003,0 0.005,-0.006 0.005,-0.006 0.008,-0.007 0.016,-0.011 0.021,0.004 0.018,0.014 0.047,0.013 0,0.001 0.001,0.001 0.002,0.002 l 0,0.002 C -1.867,0 -1.956,0.021 -1.956,0.021 m 2.003,-0.035 -0.005,0 c 0,-0.003 0,-0.005 0,-0.008 0.004,10e-4 0.006,10e-4 0.009,0.002 -10e-4,0.002 -0.003,0.004 -0.004,0.006 M 0.06,-0.112 c -0.001,0.001 -0.002,0.004 -0.002,0.005 0.013,0.004 0.012,0.01 0.022,0.015 l 0,0.01 c -0.016,0.015 -0.029,0.015 -0.043,0.034 -0.015,0.009 -0.029,0.006 -0.041,-0.005 0.001,0.005 0.001,0.003 0.004,0.009 -0.006,0.003 -0.012,0.006 -0.019,0.008 -0.007,-0.006 -0.018,-0.011 -0.032,-0.012 -0.002,-0.014 -0.001,-0.014 -0.009,-0.023 0.008,-0.008 0.016,-0.006 0.026,-0.003 -0.004,-0.012 -0.008,-0.009 -0.008,-0.018 -0.02,0 -0.039,-0.001 -0.059,-0.001 0.001,-0.012 0.003,-0.004 0.008,-0.012 -0.002,-0.001 -0.004,-0.002 -0.006,-0.003 0.008,-0.008 0.016,-0.007 0.028,-0.007 -0.007,-0.008 -0.008,-0.009 -0.014,-0.016 0.016,-0.022 0.03,-0.008 0.056,-0.016 -0.015,-0.01 -0.01,-0.01 -0.01,-0.024 -0.01,-0.01 -0.009,-0.007 0,-0.013 -0.006,-0.01 -0.005,-0.004 -0.003,-0.015 -0.005,0 -0.011,0.001 -0.017,0.001 -0.002,-0.004 -0.003,-0.007 -0.005,-0.012 0.008,0.002 0.017,0.004 0.025,0.005 -0.005,-0.003 -0.01,-0.007 -0.016,-0.01 0.026,-0.063 0.117,0.018 0.157,0.017 C 0.1,-0.17 0.088,-0.126 0.06,-0.112"
         style="fill:#1a1a1a;fill-opacity:1;fill-rule:nonzero;stroke:none"
         id="path3342" />
    </g>
    <g
       id="g3344"
       transform="matrix(63.702707,0,0,-63.702707,2336.7764,61.776426)"
       style="fill:#1a1a1a">
      <path
         inkscape:connector-curvature="0"
         d="M 0,0 C -0.001,-0.002 -0.001,-0.004 -0.002,-0.006 0,-0.005 0.002,-0.005 0.004,-0.004 0.003,-0.003 0.001,-0.001 0,0 m 1.954,-0.051 c 0.002,-0.003 0.003,-0.007 0.004,-0.01 0.005,-0.002 0.01,-0.003 0.016,-0.005 -0.006,0.009 -0.01,0.011 -0.02,0.015 m -2.794,0.047 c -0.002,-0.003 -0.004,-0.005 -0.006,-0.008 0.001,-10e-4 0.002,-10e-4 0.004,-0.002 0.006,0.004 0.005,0.002 0.008,0.01 -0.002,0 -0.004,0 -0.006,0"
         style="fill:#1a1a1a;fill-opacity:1;fill-rule:nonzero;stroke:none"
         id="path3346" />
    </g>
    <g
       id="g3348"
       transform="matrix(63.702707,0,0,-63.702707,2293.4585,62.602014)"
       style="fill:#1a1a1a">
      <path
         inkscape:connector-curvature="0"
         d="M 0,0 C -0.001,-0.003 -0.001,-0.005 -0.002,-0.008 0,-0.01 0.002,-0.011 0.004,-0.012 0.017,-0.011 0.03,-0.009 0.043,-0.008 0.029,-0.005 0.014,-0.003 0,0 M 2.126,-0.056 C 2.125,-0.06 2.122,-0.064 2.121,-0.068 2.122,-0.07 2.122,-0.072 2.124,-0.075 c 0.003,0.002 0.007,0.002 0.011,0.003 0,0.002 0.001,0.004 0.002,0.006 -0.004,0.003 -0.007,0.007 -0.011,0.01 m -2.423,0.062 c -0.001,-0.007 -0.002,-0.005 0.002,-0.01 0.001,0.001 0.003,0.002 0.004,0.004 -0.002,0.002 -0.004,0.004 -0.006,0.006"
         style="fill:#1a1a1a;fill-opacity:1;fill-rule:nonzero;stroke:none"
         id="path3350" />
    </g>
    <g
       id="g3352"
       transform="matrix(63.702707,0,0,-63.702707,2308.2376,63.621257)"
       style="fill:#1a1a1a">
      <path
         inkscape:connector-curvature="0"
         d="M 0,0 C -0.001,0 -0.003,0 -0.004,0 -0.005,-0.001 -0.006,-0.003 -0.006,-0.004 0,-0.003 0.004,-0.006 0,0 m -0.516,0.014 c 0,-0.001 0,-0.003 0,-0.004 0.001,10e-4 0.003,0.003 0.004,0.004 -0.001,0 -0.003,0 -0.004,0"
         style="fill:#1a1a1a;fill-opacity:1;fill-rule:nonzero;stroke:none"
         id="path3354" />
    </g>
    <g
       id="g3356"
       transform="matrix(63.702707,0,0,-63.702707,2307.8553,64.003473)"
       style="fill:#1a1a1a">
      <path
         inkscape:connector-curvature="0"
         d="m 0,0 c -0.003,0 -0.007,0 -0.012,0 -0.004,-0.002 -0.008,-0.005 -0.012,-0.007 0.008,-0.001 0.018,-0.001 0.026,-0.001 0,0 0,0.001 0,0.002 C 0.001,-0.004 0.001,-0.002 0,0 M 0.277,-0.012 C 0.278,-0.015 0.28,-0.018 0.281,-0.02 0.283,-0.019 0.284,-0.018 0.285,-0.016 0.283,-0.015 0.28,-0.014 0.277,-0.012 M 0.416,-0.02 C 0.413,-0.022 0.41,-0.024 0.408,-0.026 0.407,-0.029 0.406,-0.031 0.406,-0.033 c 0.002,0 0.004,0 0.006,0 0.003,0.002 0.008,0.004 0.011,0.007 l 0,0.006 c -0.002,0 -0.004,0 -0.007,0 M -0.36,0.001 c 0.004,-0.002 0.001,-0.002 0.004,0 -0.001,0 -0.003,0 -0.004,0"
         style="fill:#1a1a1a;fill-opacity:1;fill-rule:nonzero;stroke:none"
         id="path3358" />
    </g>
    <g
       id="g3360"
       transform="matrix(63.702707,0,0,-63.702707,2325.5035,65.471183)"
       style="fill:#1a1a1a">
      <path
         inkscape:connector-curvature="0"
         d="M 0,0 C -0.001,-0.001 -0.002,-0.003 -0.002,-0.004 0,-0.005 0.002,-0.006 0.004,-0.006 c 0.002,0 0.003,0.001 0.004,0.002 C 0.006,-0.003 0.003,-0.002 0,0 m 0.008,-0.007 0,-0.004 c 10e-4,10e-4 0.004,0.002 0.005,0.004 -10e-4,0 -0.004,0 -0.005,0 M 2.17,-0.064 c 0.004,-0.002 0.009,-0.004 0.013,-0.007 l 0,0.002 C 2.179,-0.065 2.179,-0.066 2.17,-0.064 M 2.018,-0.08 C 2.017,-0.081 2.017,-0.082 2.016,-0.084 c 0.006,0.002 0.003,0 0.006,0.004 -10e-4,0 -0.003,0 -0.004,0 M 1.994,-0.091 C 1.993,-0.092 1.993,-0.094 1.992,-0.095 c 0.001,-0.001 0.001,-0.001 0.002,-0.002 0.001,0.001 0.003,0.003 0.004,0.004 l 0,0.002 c -10e-4,0 -0.003,0 -0.004,0 m -0.003,-0.014 0,-0.006 c 10e-4,0 0.002,0 0.004,0 -0.003,0.006 0,0.002 -0.004,0.006 m -2.912,0.066 c 0,-0.001 0,-0.003 0,-0.004 0.001,10e-4 0.003,0.003 0.004,0.004 -0.001,0 -0.003,0 -0.004,0 M -1,-0.047 c -10e-4,-0.003 -10e-4,-0.005 -0.002,-0.007 0.003,0.004 0.004,0.001 0.002,0.007"
         style="fill:#1a1a1a;fill-opacity:1;fill-rule:nonzero;stroke:none"
         id="path3362" />
    </g>
    <g
       id="g3364"
       transform="matrix(63.702707,0,0,-63.702707,2264.2215,69.609311)"
       style="fill:#1a1a1a">
      <path
         inkscape:connector-curvature="0"
         d="m 0,0 c -0.004,-0.001 -0.007,-0.003 -0.011,-0.004 0,-0.001 0,-0.003 0,-0.004 0.007,-10e-4 0.014,-0.002 0.021,-0.002 0,0 0,0.001 0,0.002 C 0.006,-0.002 0.008,-0.003 0,0 m -0.119,-0.002 c -0.001,-0.001 -0.003,-0.001 -0.004,-0.002 0,-0.001 0,-0.001 0,-0.002 0.003,0.001 0.007,0.003 0.011,0.004"
         style="fill:#1a1a1a;fill-opacity:1;fill-rule:nonzero;stroke:none"
         id="path3366" />
    </g>
    <g
       id="g3368"
       transform="matrix(63.702707,0,0,-63.702707,2260.2057,69.802968)"
       style="fill:#1a1a1a">
      <path
         inkscape:connector-curvature="0"
         d="M 0,0 C 0.004,-0.002 0,-0.002 0.004,0 0.003,0 0.001,0 0,0 m -0.026,-0.002 c 10e-4,-0.001 0.003,-0.003 0.004,-0.004 l 0.002,0 c -0.003,0.004 0,0.001 -0.006,0.004 m 0.117,-0.01 C 0.09,-0.013 0.09,-0.015 0.089,-0.016 0.092,-0.017 0.096,-0.019 0.099,-0.02 l 0.002,0 c 10e-4,0.001 0.002,0.002 0.003,0.004 -0.005,0.003 -0.005,0.003 -0.013,0.004 M -2.307,-0.16 c -0.009,-0.024 -0.017,-0.041 -0.021,-0.062 0,0 10e-4,0 0.002,0 0.009,0.016 0.033,0.035 0.019,0.062 m -0.035,-0.08 c 0.006,0.005 0.003,0.003 0.004,0.008 -10e-4,-0.003 -0.003,-0.005 -0.004,-0.008 m 1.962,-0.034 c -0.001,-0.001 -0.001,-0.003 -0.002,-0.004 l 0.007,0 c -0.001,0.001 -0.003,0.003 -0.005,0.004 m -1.999,-0.137 c -0.002,-0.01 -0.005,-0.02 -0.007,-0.031 0.001,-0.001 0.001,-0.002 0.002,-0.004 l 0.003,0.001 c 0.003,0.01 0.005,0.021 0.008,0.031 -0.002,0.001 -0.004,0.002 -0.006,0.003 M 3.487,-0.47 c 0.002,-0.003 0.004,-0.006 0.006,-0.009 l 0,0.006 C 3.491,-0.472 3.489,-0.471 3.487,-0.47"
         style="fill:#1a1a1a;fill-opacity:1;fill-rule:nonzero;stroke:none"
         id="path3370" />
    </g>
    <g
       id="g3372"
       transform="matrix(63.702707,0,0,-63.702707,2160.4473,97.256284)"
       style="fill:#1a1a1a">
      <path
         inkscape:connector-curvature="0"
         d="M 0,0 C -0.001,-0.003 -0.003,-0.006 -0.004,-0.008 0,-0.004 0.002,-0.005 0,0 M 0.201,0.004 C 0.194,-0.002 0.188,-0.003 0.184,-0.013 c 0.014,-0.002 0.024,0 0.036,0 0,0 0,10e-4 0,0.002 -0.006,0.005 -0.012,0.01 -0.019,0.015 m -0.259,-0.03 c -10e-4,-0.002 -0.004,-0.004 -0.005,-0.006 0.004,0.001 0.006,0.003 0.009,0.004 -0.001,0.001 -0.003,0.001 -0.004,0.002 m 5.214,-0.15 0,-0.006 c 0.001,0 0.003,0 0.004,-0.001 -0.003,0.007 0,0.003 -0.004,0.007"
         style="fill:#1a1a1a;fill-opacity:1;fill-rule:nonzero;stroke:none"
         id="path3374" />
    </g>
    <g
       id="g3376"
       transform="matrix(63.702707,0,0,-63.702707,2478.1964,107.89718)"
       style="fill:#1a1a1a">
      <path
         inkscape:connector-curvature="0"
         d="m 0,0 c 0.002,-0.005 0.004,-0.01 0.006,-0.015 -0.004,-0.003 -0.008,-0.006 -0.012,-0.008 0,-0.027 0.02,-0.063 0.037,-0.073 0.002,-0.001 0.003,-0.003 0.005,-0.005 0,0 0.001,0 0.002,0 C 0.037,-0.069 0.022,-0.012 0,0"
         style="fill:#1a1a1a;fill-opacity:1;fill-rule:nonzero;stroke:none"
         id="path3378" />
    </g>
    <g
       id="g3380"
       transform="matrix(63.702707,0,0,-63.702707,2480.2349,108.59536)"
       style="fill:#1a1a1a">
      <path
         inkscape:connector-curvature="0"
         d="m 0,0 c -0.001,-0.001 -0.003,-0.001 -0.004,-0.002 l 0,-0.006 c 0.003,0 0.007,-10e-4 0.01,-10e-4 C 0.004,-0.002 0.005,-0.004 0,0 m -5.938,-0.127 c -0.001,-0.002 -0.001,-0.003 -0.002,-0.004 0.002,-0.003 0.004,-0.005 0.007,-0.008 10e-4,0 10e-4,0 0.002,0.001 -0.001,0.01 0,0.008 -0.007,0.011"
         style="fill:#1a1a1a;fill-opacity:1;fill-rule:nonzero;stroke:none"
         id="path3382" />
    </g>
    <g
       id="g3384"
       transform="matrix(63.702707,0,0,-63.702707,2484.6941,123.69545)"
       style="fill:#1a1a1a">
      <path
         inkscape:connector-curvature="0"
         d="M 0,0 C -0.007,0.049 -0.029,0.102 -0.053,0.136 -0.055,0.137 -0.057,0.138 -0.06,0.139 -0.062,0.132 -0.063,0.126 -0.065,0.12 -0.074,0.114 -0.071,0.114 -0.081,0.119 -0.079,0.094 -0.054,0.071 -0.046,0.05 -0.039,0.034 -0.044,0.014 -0.04,0.003 -0.031,-0.002 -0.03,-0.009 -0.012,-0.012 -0.013,-0.006 -0.014,0 -0.014,0.005 -0.009,0.005 -0.008,0.004 -0.002,0 -0.001,0 -0.001,0 0,0 m 0.287,0.088 0,-0.008 C 0.289,0.078 0.291,0.077 0.293,0.074 0.292,0.084 0.292,0.083 0.287,0.088 M 0.306,0.071 C 0.307,0.068 0.309,0.065 0.31,0.062 c 0.001,0 0.001,0 0.002,0 -0.003,0.008 0,0.004 -0.006,0.009"
         style="fill:#1a1a1a;fill-opacity:1;fill-rule:nonzero;stroke:none"
         id="path3386" />
    </g>
    <g
       id="g3388"
       transform="matrix(63.702707,0,0,-63.702707,2503.2341,120.57147)"
       style="fill:#1a1a1a">
      <path
         inkscape:connector-curvature="0"
         d="m 0,0 c 0.001,-0.004 0.003,-0.007 0.004,-0.011 -0.003,0.003 -0.005,0.005 -0.008,0.007 0.003,-0.004 0.005,-0.01 0.008,-0.014 0.002,0.002 0.004,0.004 0.006,0.007 C 0.007,-0.008 0.004,-0.004 0,0 m 0.023,-0.011 0,-0.006 c 0.003,-0.002 0.005,-0.005 0.008,-0.007 l 0,0.008 c -0.003,0.002 -0.005,0.003 -0.008,0.005 m 0.02,-0.066 0,-0.006 C 0.047,-0.085 0.05,-0.086 0.052,-0.088 0.05,-0.084 0.047,-0.081 0.043,-0.077 m -1.045,0.034 c 0.001,-0.004 0.001,-0.008 0.003,-0.012 0,0.005 0.001,0.008 0.001,0.012 -0.001,0 -0.001,0 -0.004,0 m 0.994,-0.064 c 0,-0.006 0,-0.011 0,-0.017 0.002,-0.002 0.004,-0.004 0.006,-0.007 0.002,-0.001 0.004,-0.002 0.005,-0.003 0.002,0.001 0.002,0.003 0.003,0.004 -0.005,0.008 -0.009,0.016 -0.014,0.023"
         style="fill:#1a1a1a;fill-opacity:1;fill-rule:nonzero;stroke:none"
         id="path3390" />
    </g>
    <g
       id="g3392"
       transform="matrix(63.702707,0,0,-63.702707,2505.2063,128.15464)"
       style="fill:#1a1a1a">
      <path
         inkscape:connector-curvature="0"
         d="m 0,0 c -0.003,0.001 -0.006,0.002 -0.008,0.003 0.006,-0.006 0.012,-0.012 0.018,-0.019 10e-4,0.002 0.003,0.002 0.005,0.005 C 0.009,-0.008 0.005,-0.004 0,0 m -0.025,-0.024 c 0.001,-0.003 0.001,-0.006 0.002,-0.008 0.004,-0.003 0.006,-0.005 0.009,-0.007 l 0,0.008 c -0.003,0.002 -0.008,0.005 -0.011,0.007 m -5.797,-0.003 c 0,-0.006 0,-0.011 0,-0.018 0.003,0.002 0.005,0.002 0.008,0.002 l 0,0.002 c -0.002,0.007 -0.003,0.01 -0.008,0.014 m 5.877,-0.097 c 0.002,-0.004 0.004,-0.008 0.006,-0.013 0.001,0.002 0.002,0.003 0.002,0.004 C 0.06,-0.13 0.058,-0.127 0.055,-0.124 M -3.036,-3.76 c -10e-4,-0.003 -10e-4,-0.007 -0.002,-0.009 0.003,0.002 0.007,0.006 0.01,0.009"
         style="fill:#1a1a1a;fill-opacity:1;fill-rule:nonzero;stroke:none"
         id="path3394" />
    </g>
    <g
       id="g3396"
       transform="matrix(63.702707,0,0,-63.702707,2307.412,367.93163)"
       style="fill:#1a1a1a">
      <path
         inkscape:connector-curvature="0"
         d="m 0,0 c -0.003,-0.001 -0.005,-0.003 -0.007,-0.004 0.001,-0.002 0.003,-0.003 0.004,-0.004 l 0.011,0 0,0.002 C 0.006,-0.004 0.003,-0.002 0,0 m 0.017,-0.002 c 0,-0.001 0,-0.003 0,-0.004 10e-4,0.001 0.003,0.002 0.004,0.004 l -0.004,0 z m -0.342,-0.207 c -0.001,-0.002 -0.001,-0.004 -0.002,-0.006 0.004,0.003 0.001,0 0.004,0.006 l -0.002,0 z M -0.329,-0.22 c -0.001,-0.002 -0.001,-0.004 -0.003,-0.006 0.002,0.001 0.004,0.002 0.005,0.004 -0.001,0.001 -0.001,0.001 -0.002,0.002 m -0.155,-0.139 c 0,0.006 0,0.013 0,0.019 -0.011,0 -0.02,-0.003 -0.03,-0.004 -0.011,-0.025 -0.038,-0.039 -0.06,-0.054 l 0,-0.002 c 0.004,-0.001 0.007,-0.003 0.011,-0.005 0.02,0.003 0.034,0.011 0.047,0.02 0,0.003 0,0.007 0,0.01 0.013,0.003 0.023,0.01 0.032,0.016 m -1.178,-0.064 c 0.004,-0.003 10e-4,-0.003 0.004,0 l -0.004,0 z M -1.67,-0.487 c -0.001,-0.001 -0.001,-0.003 -0.002,-0.004 10e-4,-0.001 0.003,-0.002 0.004,-0.002 10e-4,0 10e-4,0.001 0.002,0.002 -0.001,0.001 -0.003,0.003 -0.004,0.004 m 0.546,-0.152 c 0.002,-0.011 0.001,-0.013 0.012,-0.018 l 0,0.002 c -0.004,0.009 -10e-4,0.012 -0.012,0.016 m -0.472,-0.054 c 0.004,-0.007 0,-0.002 0.006,-0.005 0.001,0 0.002,0.001 0.002,0.003 l 0,0.002 -0.008,0 z m -0.051,-0.046 c 0.001,-0.002 0.004,-0.004 0.005,-0.006 l 0.008,0 0,0.002 c -0.004,0.003 -0.004,0.003 -0.013,0.004 m 0.016,-0.046 0,-0.006 0.006,0 c -0.002,0.002 -0.004,0.004 -0.006,0.006 m 0.022,-0.03 C -1.61,-0.816 -1.61,-0.818 -1.611,-0.819 l 0.004,0 c -0.001,0.001 -0.001,0.003 -0.002,0.004 m 0.193,-0.326 c -0.001,-10e-4 -0.001,-10e-4 -0.002,-0.002 10e-4,-0.002 0.003,-0.003 0.005,-0.004 0.002,0 0.004,0.001 0.006,0.002 -0.002,0.001 -0.005,0.003 -0.009,0.004 m 0.04,-0.019 c -0.002,10e-4 -0.004,10e-4 -0.007,0.002 -0.004,-0.003 -0.008,-0.006 -0.013,-0.008 0.013,-0.002 0.019,-0.006 0.024,0.006"
         style="fill:#1a1a1a;fill-opacity:1;fill-rule:nonzero;stroke:none"
         id="path3398" />
    </g>
    <g
       id="g3400"
       transform="matrix(63.702707,0,0,-63.702707,2222.9422,441.82677)"
       style="fill:#1a1a1a">
      <path
         inkscape:connector-curvature="0"
         d="M 0,0 C -0.003,0.001 -0.007,0.001 -0.01,0.002 -0.012,0.001 -0.014,0.001 -0.017,0 c 0.002,-0.001 0.003,-0.001 0.005,-0.002 0.002,-0.002 0.004,-0.004 0.006,-0.006 0.003,0.001 0.005,0.002 0.009,0.004 C 0.001,-0.003 0.001,-0.001 0,0"
         style="fill:#1a1a1a;fill-opacity:1;fill-rule:nonzero;stroke:none"
         id="path3402" />
    </g>
    <g
       id="g3404"
       transform="matrix(63.702707,0,0,-63.702707,2224.2162,443.99267)"
       style="fill:#1a1a1a">
      <path
         inkscape:connector-curvature="0"
         d="m 0,0 0,0.002 c -0.018,0.002 -0.025,0.001 -0.036,0.008 -0.002,0.015 0,0.02 -0.016,0.024 0.003,-0.015 0.008,-0.033 0.007,-0.042 0.002,-10e-4 0.005,-0.002 0.007,-0.002 0.002,0.005 0.004,0.009 0.006,0.014 0.001,0 0.003,-0.001 0.004,-0.002 0.004,-0.01 0.01,-0.019 0.02,-0.024 -0.005,0.005 -0.008,0.011 -0.012,0.016 l 0,0.002 C -0.013,-0.003 -0.006,-0.001 0,0 m -0.034,-0.032 c 0.001,-0.001 0.001,-0.003 0.002,-0.004 0.001,10e-4 0.001,0.003 0.002,0.004 l -0.004,0 z M 0.101,-0.077 C 0.1,-0.085 0.099,-0.08 0.107,-0.083 0.105,-0.081 0.103,-0.079 0.101,-0.077 m 0.062,-0.002 c 0.005,-0.007 0.015,-0.006 0.026,-0.009 0.001,0.002 0.001,0.003 0.002,0.005 -0.01,0.001 -0.019,0.003 -0.028,0.004 m 0.852,7.31 C -0.601,7.231 -1.988,6.25 -2.583,4.852 -2.034,5.829 -0.873,7.002 1.013,7 2.716,6.999 3.989,5.974 4.613,4.85 4.019,6.249 2.631,7.231 1.015,7.231"
         style="fill:#1a1a1a;fill-opacity:1;fill-rule:nonzero;stroke:none"
         id="path3406" />
    </g>
    <g
       id="g3408"
       transform="matrix(63.702707,0,0,-63.702707,2526.2945,307.85743)"
       style="fill:#1a1a1a">
      <path
         inkscape:connector-curvature="0"
         d="m 0,0 c -0.506,-1.549 -1.931,-2.755 -3.736,-2.755 -1.914,0 -3.2,1.189 -3.718,2.721 0.539,-1.427 2.001,-2.45 3.722,-2.45 C -2,-2.484 -0.527,-1.444 0,0 m -10.413,0.131 c -0.39,0 -0.597,0.249 -0.599,0.723 l -0.005,1.087 c 0,0.012 0.009,0.022 0.021,0.024 l 0.339,0.033 c 0.007,0.001 0.013,-0.002 0.018,-0.007 0.005,-0.004 0.007,-0.01 0.007,-0.016 l 0.006,-1.076 c 10e-4,-0.236 0.091,-0.356 0.268,-0.356 0.013,0 0.028,0 0.042,0.002 0.207,0.02 0.313,0.161 0.311,0.419 l -0.005,1.075 c 0,0.012 0.009,0.022 0.021,0.024 l 0.341,0.033 c 0.007,10e-4 0.013,-0.002 0.018,-0.007 0.005,-0.004 0.007,-0.01 0.007,-0.016 l 0.005,-1.088 c 0.002,-0.292 -0.086,-0.79 -0.695,-0.849 -0.035,-0.003 -0.068,-0.005 -0.1,-0.005"
         style="fill:#1a1a1a;fill-opacity:1;fill-rule:nonzero;stroke:none"
         id="path3410" />
    </g>
    <g
       id="g3412"
       transform="matrix(63.702707,0,0,-63.702707,1936.8508,289.63846)"
       style="fill:#1a1a1a">
      <path
         inkscape:connector-curvature="0"
         d="M 0,0 C -0.006,0 -0.011,0.002 -0.015,0.006 -0.02,0.01 -0.023,0.016 -0.023,0.024 l -0.009,1.794 c 0,0.013 0.01,0.023 0.022,0.024 l 0.362,0.025 c 0.008,0 0.016,-0.003 0.021,-0.009 L 1.14,0.845 1.135,1.899 c 0,0.012 0.009,0.022 0.022,0.023 L 1.45,1.943 C 1.456,1.943 1.462,1.941 1.467,1.937 1.472,1.933 1.474,1.927 1.474,1.92 L 1.483,0.125 C 1.483,0.112 1.473,0.102 1.461,0.102 L 1.161,0.08 C 1.153,0.08 1.145,0.083 1.14,0.09 L 0.311,1.188 0.317,0.044 C 0.317,0.032 0.308,0.022 0.295,0.021 L 0.003,0 C 0.002,0 0.002,0 0,0 M 1.913,0.123 C 1.906,0.123 1.901,0.126 1.896,0.13 1.892,0.134 1.889,0.14 1.889,0.147 l -0.01,1.789 c 0,0.012 0.01,0.022 0.022,0.023 l 0.39,0.02 C 2.297,1.979 2.304,1.977 2.308,1.973 2.313,1.969 2.316,1.962 2.316,1.955 L 2.324,0.167 c 0,-0.014 -0.01,-0.024 -0.022,-0.024 l -0.388,-0.02 -10e-4,0 m 1.435,0.061 c -0.009,0 -0.017,0.005 -0.021,0.015 L 2.565,1.965 C 2.561,1.973 2.561,1.981 2.566,1.987 2.57,1.993 2.577,1.997 2.585,1.998 l 0.446,0.013 c 0.01,0 0.018,-0.005 0.022,-0.014 L 3.55,0.843 4.062,2.028 c 0.003,0.009 0.011,0.014 0.021,0.014 l 0.351,0.01 c 0.009,0 0.016,-0.003 0.02,-0.01 C 4.458,2.035 4.459,2.027 4.456,2.02 L 3.674,0.207 C 3.67,0.199 3.662,0.194 3.654,0.194 L 3.349,0.184 z m 1.381,0.034 c -0.012,0 -0.023,0.01 -0.023,0.023 L 4.695,2.03 c 0,0.006 0.003,0.012 0.008,0.017 0.004,0.005 0.01,0.007 0.016,0.007 l 1.434,0.002 c 0.013,0 0.023,-0.011 0.023,-0.024 L 6.178,1.683 C 6.179,1.677 6.175,1.672 6.171,1.667 6.167,1.663 6.161,1.661 6.155,1.661 L 5.155,1.66 5.156,1.349 5.828,1.35 c 0.013,0 0.024,-0.01 0.024,-0.022 L 5.853,0.976 C 5.854,0.97 5.851,0.964 5.846,0.959 5.842,0.955 5.836,0.952 5.83,0.952 l -0.671,0 0.002,-0.336 1.01,0.001 c 0.013,0 0.023,-0.01 0.023,-0.023 L 6.196,0.243 C 6.196,0.236 6.194,0.23 6.189,0.226 6.185,0.222 6.179,0.22 6.172,0.22 z M 8.185,0.164 8.184,0.164 7.72,0.177 C 7.712,0.178 7.705,0.182 7.701,0.189 L 7.308,0.865 7.054,0.873 7.057,0.221 C 7.057,0.215 7.054,0.209 7.05,0.205 7.046,0.201 7.039,0.199 7.033,0.199 L 6.642,0.21 C 6.629,0.21 6.619,0.22 6.619,0.233 L 6.611,2.028 c 0,0.006 0.002,0.013 0.007,0.017 0.004,0.004 0.01,0.007 0.016,0.006 L 7.619,2.022 C 7.946,2.012 8.134,1.804 8.136,1.451 8.138,1.11 7.956,0.968 7.791,0.909 L 8.205,0.199 C 8.209,0.191 8.209,0.182 8.205,0.175 8.201,0.168 8.193,0.164 8.185,0.164 M 7.05,1.266 7.368,1.257 c 0.014,0 0.028,-10e-4 0.041,-10e-4 0.118,0 0.186,0.017 0.223,0.055 C 7.662,1.34 7.675,1.387 7.675,1.463 7.674,1.548 7.658,1.624 7.465,1.63 L 7.048,1.643 z M 9.204,0.059 C 9.179,0.059 9.154,0.06 9.128,0.061 8.851,0.076 8.561,0.249 8.479,0.302 8.472,0.307 8.468,0.314 8.468,0.322 L 8.466,0.736 c 0,0.008 0.005,0.016 0.013,0.02 C 8.486,0.76 8.495,0.759 8.502,0.755 8.754,0.587 8.993,0.479 9.129,0.472 9.257,0.464 9.342,0.483 9.384,0.526 9.406,0.547 9.416,0.574 9.415,0.608 9.415,0.649 9.374,0.688 9.285,0.733 9.234,0.758 9.171,0.784 9.105,0.811 8.825,0.926 8.442,1.083 8.44,1.507 8.439,1.648 8.484,1.765 8.572,1.855 8.687,1.969 8.87,2.027 9.076,2.017 9.318,2.003 9.606,1.88 9.741,1.799 9.748,1.795 9.752,1.788 9.752,1.779 L 9.754,1.378 C 9.754,1.37 9.749,1.362 9.742,1.358 9.735,1.354 9.726,1.354 9.718,1.359 9.635,1.413 9.344,1.592 9.076,1.606 8.98,1.611 8.933,1.585 8.912,1.565 8.892,1.545 8.889,1.525 8.889,1.514 8.89,1.47 8.932,1.427 9.02,1.379 9.074,1.35 9.141,1.322 9.213,1.293 9.488,1.176 9.866,1.018 9.867,0.637 9.868,0.466 9.819,0.33 9.721,0.232 9.606,0.118 9.433,0.059 9.204,0.059 m 2.448,-0.113 c -10e-4,0 -10e-4,0 -0.002,0 l -0.386,0.029 c -0.009,0 -0.017,0.006 -0.02,0.015 L 11.114,0.351 10.486,0.396 10.353,0.057 C 10.35,0.048 10.34,0.041 10.33,0.043 L 10.006,0.066 C 9.999,0.067 9.992,0.071 9.988,0.078 9.984,0.084 9.983,0.091 9.986,0.098 l 0.694,1.759 c 0.004,0.009 0.013,0.015 0.023,0.014 l 0.271,-0.019 c 0.009,0 0.016,-0.007 0.02,-0.016 l 0.68,-1.859 c 0.003,-0.008 0.002,-0.016 -0.003,-0.022 -0.004,-0.006 -0.012,-0.009 -0.019,-0.009 m -1.013,0.836 0.324,-0.024 -0.159,0.44 z m 2.398,-0.965 -0.002,0 -1.113,0.104 c -0.012,0.001 -0.021,0.01 -0.021,0.022 L 11.89,1.76 c 0,0.006 0.004,0.013 0.009,0.017 0.004,0.004 0.01,0.006 0.017,0.006 L 12.252,1.752 C 12.265,1.751 12.273,1.741 12.273,1.729 L 12.28,0.29 13.038,0.221 C 13.05,0.22 13.059,0.209 13.059,0.197 l 0.002,-0.356 c 0,-0.007 -0.003,-0.013 -0.008,-0.017 -0.004,-0.005 -0.009,-0.007 -0.016,-0.007"
         style="fill:#1a1a1a;fill-opacity:1;fill-rule:nonzero;stroke:none"
         id="path3414"
         sodipodi:nodetypes="cccccccccccsccccccccccccccccccccccsccccccccccsccccscccccccccccccccsscccccccccccccccsccccccccccscccscccccccccccccccccccccccscccccccccccccccccccccccccccccccccccccccccccccc" />
    </g>
    <g
       id="g3416"
       transform="matrix(63.702707,0,0,-63.702707,1990.8095,566.42927)"
       style="fill:#1a1a1a" />
  </g>
</svg>
